<svg xmlns="http://www.w3.org/2000/svg" viewBox="0 0 199.6225 392.5486"><defs><style>.cls-1{fill:none;stroke:#663;stroke-miterlimit:10;stroke-width:8px;}</style></defs><g id="Layer_2" data-name="Layer 2"><path class="cls-1" d="M144.9125,127.7225V83.4016A24.7675,24.7675,0,0,0,120.145,58.6341h0A24.7675,24.7675,0,0,0,95.3775,83.4016v80.8205a16.9462,16.9462,0,0,0,16.9462,16.9462h49.5351V131.6332H148.8232A3.9107,3.9107,0,0,1,144.9125,127.7225Z" transform="translate(-91.3775 -3.7955)"/><path class="cls-1" d="M237.4649,194.2038V149.8829a24.7675,24.7675,0,0,1,24.7675-24.7675h0A24.7675,24.7675,0,0,1,287,149.8829v80.82A16.9462,16.9462,0,0,1,270.0538,247.65H220.5187v-49.535h13.0356A3.9106,3.9106,0,0,0,237.4649,194.2038Z" transform="translate(-91.3775 -3.7955)"/><path class="cls-1" d="M92.9813,4h13.66a22.5,22.5,0,0,1,22.5,22.5V388.5486a0,0,0,0,1,0,0h-58.66a0,0,0,0,1,0,0V26.5A22.5,22.5,0,0,1,92.9813,4Z"/><path class="cls-1" d="M120.145,58.6341v88.5844a7.8787,7.8787,0,0,0,7.8786,7.8787h33.8352" transform="translate(-91.3775 -3.7955)"/><path class="cls-1" d="M262.2325,125.1154V213.7a7.8786,7.8786,0,0,1-7.8787,7.8786H220.5187" transform="translate(-91.3775 -3.7955)"/><path class="cls-1" d="M178.805,392.3441c.4488-202.5724.6893-348.92,0-361.77-.1081-2.0154-.7255-9.8143,3.9106-16.0787a20.36,20.36,0,0,1,9.1249-6.6994" transform="translate(-91.3775 -3.7955)"/><path class="cls-1" d="M204.116,393c-.4488-202.5724-.6893-348.92,0-361.77.1081-2.0154.7255-9.8143-3.9106-16.0787a20.36,20.36,0,0,0-9.1249-6.6994" transform="translate(-91.3775 -3.7955)"/></g></svg>