<svg xmlns="http://www.w3.org/2000/svg" viewBox="0 0 197.9979 395.3291"><defs><style>.cls-1{fill:none;stroke:#663;stroke-miterlimit:10;stroke-width:2px;}</style></defs><g id="Layer_2" data-name="Layer 2"><path class="cls-1" d="M146.0436,125.6654V80.3325a25.3331,25.3331,0,0,0-25.333-25.3331h0a25.3331,25.3331,0,0,0-25.333,25.3331v82.6658a17.3331,17.3331,0,0,0,17.3331,17.3331h50.6661V129.6653H150.0436A4,4,0,0,1,146.0436,125.6654Z" transform="translate(-94.3775 -2)"/><path class="cls-1" d="M240.7092,193.6646V148.3318a25.3331,25.3331,0,0,1,25.3331-25.3331h0a25.3331,25.3331,0,0,1,25.3331,25.3331v82.6658a17.3331,17.3331,0,0,1-17.3332,17.3331H223.3761V197.6646h13.3332A4,4,0,0,0,240.7092,193.6646Z" transform="translate(-94.3775 -2)"/><path class="cls-1" d="M91.4993,1h14.9994a22.5,22.5,0,0,1,22.5,22.5V394.3291a0,0,0,0,1,0,0H68.9993a0,0,0,0,1,0,0V23.5A22.5,22.5,0,0,1,91.4993,1Z"/><path class="cls-1" d="M120.7105,54.9994v90.6071a8.0586,8.0586,0,0,0,8.0585,8.0586h34.6077" transform="translate(-94.3775 -2)"/><path class="cls-1" d="M266.0423,122.9987v90.6071a8.0585,8.0585,0,0,1-8.0585,8.0585H223.3761" transform="translate(-94.3775 -2)"/><path class="cls-1" d="M180.71,396.3291c.4591-207.1978.705-356.8872,0-370.0309-.1106-2.0614-.7421-10.0383,4-16.4458A20.825,20.825,0,0,1,194.0431,3" transform="translate(-94.3775 -2)"/><path class="cls-1" d="M206.5989,397c-.4591-207.1978-.7051-356.8872,0-370.0309.1106-2.0614.742-10.0384-4-16.4458a20.8242,20.8242,0,0,0-9.3332-6.8524" transform="translate(-94.3775 -2)"/></g></svg>