<svg id="Layer_1" data-name="Layer 1" xmlns="http://www.w3.org/2000/svg" xmlns:xlink="http://www.w3.org/1999/xlink" viewBox="0 0 524.27 973.31"><defs><style>.cls-1{fill:url(#linear-gradient);}.cls-2{fill:url(#linear-gradient-2);}.cls-3{fill:url(#linear-gradient-3);}.cls-4{fill:url(#linear-gradient-4);}.cls-5{opacity:0.41;}.cls-6{fill:#fff;}</style><linearGradient id="linear-gradient" x1="435.98" y1="380.25" x2="332.07" y2="395.02" gradientUnits="userSpaceOnUse"><stop offset="0" stop-color="#004b23"/><stop offset="0.5" stop-color="#007200"/><stop offset="1" stop-color="#38b000"/></linearGradient><linearGradient id="linear-gradient-2" x1="396.79" y1="365.43" x2="671.6" y2="262.57" xlink:href="#linear-gradient"/><linearGradient id="linear-gradient-3" x1="789.97" y1="94.55" x2="636.94" y2="152.99" xlink:href="#linear-gradient"/><linearGradient id="linear-gradient-4" x1="299.8" y1="958.7" x2="776.9" y2="501.77" gradientUnits="userSpaceOnUse"><stop offset="0" stop-color="#5a189a"/><stop offset="0.51" stop-color="#9d4edd"/><stop offset="1" stop-color="#e0aaff"/></linearGradient></defs><g id="Cactus"><path class="cls-1" d="M437.55,383.73l-8.84,36.68c-47.23,17.86-88.07,3.62-97.64-20.11-5.68-14.11-1-33.4,10.46-43.36C360.84,340.23,403.66,346.24,437.55,383.73Z" transform="translate(-277.86 -55.42)"/><path class="cls-2" d="M614.13,504.58H470.93C363,346.18,379.2,182.77,458.27,126.38c47-33.53,122.35-33.59,169.31,0C706.45,182.77,722.34,346.17,614.13,504.58Z" transform="translate(-277.86 -55.42)"/><path class="cls-3" d="M670.88,201.07a50.28,50.28,0,0,1-37.65-41.5C650.75,86.67,702.35,48.4,739.48,56.48c22.07,4.81,41.89,26.62,44.51,49.06C788.38,143.21,745.22,190.77,670.88,201.07Z" transform="translate(-277.86 -55.42)"/></g><path class="cls-4" d="M645.08,1028.72H434.92A157.05,157.05,0,0,1,277.86,871.67V529.13a24.68,24.68,0,0,1,24.68-24.68H777.46a24.68,24.68,0,0,1,24.68,24.68V871.67A157.05,157.05,0,0,1,645.08,1028.72Z" transform="translate(-277.86 -55.42)"/><g id="Thorns" class="cls-5"><circle class="cls-6" cx="93.99" cy="342.12" r="1"/><circle class="cls-6" cx="111.35" cy="365.33" r="1"/><circle class="cls-6" cx="117.67" cy="309.95" r="1"/><circle class="cls-6" cx="63.87" cy="304.67" r="1"/><circle class="cls-6" cx="64.87" cy="350.62" r="1"/><circle class="cls-6" cx="128.75" cy="342.12" r="1"/><circle class="cls-6" cx="168.31" cy="108.67" r="1"/><circle class="cls-6" cx="315.48" cy="92.1" r="1"/><circle class="cls-6" cx="244.27" cy="266.39" r="1"/><circle class="cls-6" cx="305.98" cy="189.38" r="1"/><circle class="cls-6" cx="205.24" cy="405.95" r="1"/><circle class="cls-6" cx="343.96" cy="336.67" r="1"/><circle class="cls-6" cx="156.56" cy="222.61" r="1"/><circle class="cls-6" cx="368.22" cy="247.92" r="1"/><circle class="cls-6" cx="246.27" cy="148.76" r="1"/><circle class="cls-6" cx="315.48" cy="438.65" r="1"/><circle class="cls-6" cx="201.54" cy="323.66" r="1"/><circle class="cls-6" cx="306.98" cy="304.67" r="1"/><circle class="cls-6" cx="365.59" cy="141.51" r="1"/><circle class="cls-6" cx="281.72" cy="370.61" r="1"/><circle class="cls-6" cx="236.88" cy="64.67" r="1"/><circle class="cls-6" cx="93.99" cy="311.95" r="1"/><circle class="cls-6" cx="222.38" cy="203.88" r="1"/><circle class="cls-6" cx="261.76" cy="426.25" r="1"/><circle class="cls-6" cx="394.07" cy="82.72" r="1"/><circle class="cls-6" cx="389.85" cy="134.94" r="1"/><circle class="cls-6" cx="385.35" cy="109.7" r="1.03"/><circle class="cls-6" cx="361.39" cy="101.73" r="1.03"/><circle class="cls-6" cx="414.18" cy="22.61" r="1.03"/><circle class="cls-6" cx="483.24" cy="70.61" r="1.03"/><circle class="cls-6" cx="437.35" cy="108.7" r="1.03"/><circle class="cls-6" cx="442.63" cy="58.48" r="1.03"/><circle class="cls-6" cx="470.58" cy="31.05" r="1.03"/><circle class="cls-6" cx="403.59" cy="55.31" r="1.03"/><circle class="cls-6" cx="453.17" cy="84.74" r="1.03"/><circle class="cls-6" cx="174.93" cy="168.72" r="1.03"/><circle class="cls-6" cx="306.01" cy="238.35" r="1.03"/><circle class="cls-6" cx="160.71" cy="293.73" r="1.03"/><circle class="cls-6" cx="345.99" cy="401.34" r="1.03"/><circle class="cls-6" cx="180.47" cy="367.36" r="1.03"/><circle class="cls-6" cx="385.35" cy="309.97" r="1.03"/><circle class="cls-6" cx="379.86" cy="197.2" r="1.03"/><circle class="cls-6" cx="309.01" cy="134.96" r="1.03"/><circle class="cls-6" cx="265.88" cy="101.7" r="1"/><circle class="cls-6" cx="261.76" cy="325.66" r="1"/><circle class="cls-6" cx="444.65" cy="8.87" r="1"/></g></svg>