<svg xmlns="http://www.w3.org/2000/svg" viewBox="0 0 149 297"><defs><style>.cls-1{fill:none;stroke:#318b38;stroke-miterlimit:10;stroke-width:2px;}</style></defs><g id="Layer_2" data-name="Layer 2"><path class="cls-1" d="M164,144V110a19,19,0,0,0-19-19h0a19,19,0,0,0-19,19v62a13,13,0,0,0,13,13h38V147H167A3,3,0,0,1,164,144Z" transform="translate(-125 -51)"/><path class="cls-1" d="M235,195V161a19,19,0,0,1,19-19h0a19,19,0,0,1,19,19v62a13,13,0,0,1-13,13H222V198h10A3,3,0,0,0,235,195Z" transform="translate(-125 -51)"/><path class="cls-1" d="M74.5,1h0A22.5,22.5,0,0,1,97,23.5V296a0,0,0,0,1,0,0H52a0,0,0,0,1,0,0V23.5A22.5,22.5,0,0,1,74.5,1Z"/><path class="cls-1" d="M145,91v68a6,6,0,0,0,6,6h26" transform="translate(-125 -51)"/><path class="cls-1" d="M254,142v68a6,6,0,0,1-6,6H222" transform="translate(-125 -51)"/><path class="cls-1" d="M190,347c.34-155.4.53-267.67,0-277.53-.08-1.54-.56-7.52,3-12.33A15.56,15.56,0,0,1,200,52" transform="translate(-125 -51)"/><path class="cls-1" d="M209.42,347.5c-.35-155.4-.53-267.67,0-277.52.08-1.55.55-7.53-3-12.34a15.75,15.75,0,0,0-7-5.14" transform="translate(-125 -51)"/></g></svg>