<svg id="Layer_1" data-name="Layer 1" xmlns="http://www.w3.org/2000/svg" xmlns:xlink="http://www.w3.org/1999/xlink" viewBox="0 0 579.07 1038.07"><defs><style>.cls-1{fill:url(#linear-gradient);}.cls-2{fill:url(#Green-Plant-Gradient);}.cls-3{fill:url(#Green-Plant-Gradient-2);}.cls-4{fill:none;stroke:#38b000;stroke-miterlimit:10;}.cls-5{fill:#fff;}</style><linearGradient id="linear-gradient" x1="369.97" y1="994.47" x2="745.03" y2="557.71" gradientUnits="userSpaceOnUse"><stop offset="0" stop-color="#002855"/><stop offset="0.49" stop-color="#023e7d"/><stop offset="1" stop-color="#0466c8"/></linearGradient><linearGradient id="Green-Plant-Gradient" x1="277.42" y1="547.73" x2="141.67" y2="59.7" gradientUnits="userSpaceOnUse"><stop offset="0" stop-color="#004b23"/><stop offset="0.5" stop-color="#007200"/><stop offset="1" stop-color="#38b000"/></linearGradient><linearGradient id="Green-Plant-Gradient-2" x1="322.74" y1="545.8" x2="433.7" y2="310.02" xlink:href="#Green-Plant-Gradient"/></defs><path class="cls-1" d="M763.22,980.56c-112.54,112.53-297.74,112.53-410.27,0C243,870.61,240.47,691.29,345.37,578.15a24.45,24.45,0,0,1,17.91-7.86h389.6a24.44,24.44,0,0,1,17.91,7.86C875.69,691.29,873.16,870.61,763.22,980.56Z" transform="translate(-268.55 -26.89)"/><path class="cls-2" d="M211.27,0h0a88.65,88.65,0,0,1,88.65,88.65V543.4a0,0,0,0,1,0,0H122.62a0,0,0,0,1,0,0V88.65A88.65,88.65,0,0,1,211.27,0Z"/><path class="cls-3" d="M389.08,214h0a67.37,67.37,0,0,1,67.37,67.37v262a0,0,0,0,1,0,0H321.72a0,0,0,0,1,0,0v-262A67.37,67.37,0,0,1,389.08,214Z"/><path class="cls-4" d="M479.82,570.29V26.89" transform="translate(-268.55 -26.89)"/><path class="cls-4" d="M431.2,570.29v-487a55.46,55.46,0,0,1,5-23.21c11-23.75,35.61-31,40.05-32.29" transform="translate(-268.55 -26.89)"/><path class="cls-4" d="M524.88,570.29v-487a55.46,55.46,0,0,0-5-23.21c-11-23.75-35.6-31-40.05-32.29" transform="translate(-268.55 -26.89)"/><path class="cls-4" d="M660.45,570.76V240.87" transform="translate(-268.55 -26.89)"/><path class="cls-4" d="M611.83,570.76V275.14a23,23,0,0,1,5-14.09c11-14.42,35.61-18.85,40-19.6" transform="translate(-268.55 -26.89)"/><path class="cls-4" d="M705.51,570.76V275.14a23,23,0,0,0-5-14.09c-11-14.42-35.6-18.85-40-19.6" transform="translate(-268.55 -26.89)"/><g id="Thors"><circle class="cls-5" cx="139.33" cy="191.1" r="2"/><circle class="cls-5" cx="153.58" cy="282.88" r="2"/><circle class="cls-5" cx="291.54" cy="374.66" r="2"/><circle class="cls-5" cx="187.19" cy="426.88" r="2"/><circle class="cls-5" cx="139.33" cy="76.37" r="2"/><circle class="cls-5" cx="273.45" cy="110.4" r="2"/><circle class="cls-5" cx="141.33" cy="522.62" r="2"/><circle class="cls-5" cx="284.13" cy="522.62" r="2"/><circle class="cls-5" cx="191.19" cy="489.38" r="2"/><circle class="cls-5" cx="286.13" cy="442.7" r="2"/><circle class="cls-5" cx="247.73" cy="515.11" r="2"/><circle class="cls-5" cx="143.33" cy="446.7" r="2"/><circle class="cls-5" cx="178.1" cy="365.16" r="2"/><circle class="cls-5" cx="136.17" cy="369.16" r="2"/><circle class="cls-5" cx="239.03" cy="402.35" r="2"/><circle class="cls-5" cx="220.04" cy="316.9" r="2"/><circle class="cls-5" cx="286.13" cy="332.73" r="2"/><circle class="cls-5" cx="277.45" cy="231.45" r="2"/><circle class="cls-5" cx="231.91" cy="262.31" r="2"/><circle class="cls-5" cx="187.19" cy="245.69" r="2"/><circle class="cls-5" cx="295.54" cy="168.15" r="2"/><circle class="cls-5" cx="172.56" cy="145.21" r="2"/><circle class="cls-5" cx="182.1" cy="20.99" r="2"/><circle class="cls-5" cx="275.45" cy="70.04" r="2"/><circle class="cls-5" cx="206.59" cy="80.37" r="2"/><circle class="cls-5" cx="253.33" cy="35.23" r="2"/><circle class="cls-5" cx="233.91" cy="145.21" r="2"/><circle class="cls-5" cx="237.91" cy="210.88" r="2"/><circle class="cls-5" cx="199.47" cy="187.93" r="2"/><circle class="cls-5" cx="130.63" cy="249.69" r="2"/><circle class="cls-5" cx="130.63" cy="332.73" r="2"/><circle class="cls-5" cx="290.13" cy="286.88" r="2"/><circle class="cls-5" cx="247.73" cy="467.23" r="2"/><circle class="cls-5" cx="201.47" cy="540.81" r="2"/><circle class="cls-5" cx="134.63" cy="127.01" r="2"/><circle class="cls-5" cx="338.72" cy="266.31" r="2"/><circle class="cls-5" cx="367.82" cy="290.88" r="2"/><circle class="cls-5" cx="383.7" cy="467.69" r="2"/><circle class="cls-5" cx="330.81" cy="515.11" r="2"/><circle class="cls-5" cx="447.91" cy="526.62" r="2"/><circle class="cls-5" cx="410.72" cy="513.11" r="2"/><circle class="cls-5" cx="374.7" cy="520.62" r="2"/><circle class="cls-5" cx="414.72" cy="448.95" r="2"/><circle class="cls-5" cx="334.81" cy="396.02" r="2"/><circle class="cls-5" cx="353.33" cy="479.1" r="2"/><circle class="cls-5" cx="340.72" cy="450.95" r="2"/><circle class="cls-5" cx="445.91" cy="471.23" r="2"/><circle class="cls-5" cx="412.72" cy="394.86" r="2"/><circle class="cls-5" cx="376.7" cy="414.22" r="2"/><circle class="cls-5" cx="416.44" cy="334.73" r="2"/><circle class="cls-5" cx="338.72" cy="325.6" r="2"/><circle class="cls-5" cx="406.76" cy="233.45" r="2"/><circle class="cls-5" cx="391.9" cy="260.31" r="2"/><circle class="cls-5" cx="363.82" cy="229.45" r="2"/><circle class="cls-5" cx="443.91" cy="304.35" r="2"/><circle class="cls-5" cx="416.72" cy="290.88" r="2"/><circle class="cls-5" cx="451.91" cy="392.86" r="2"/><circle class="cls-5" cx="371.82" cy="352.51" r="2"/><circle class="cls-5" cx="436.97" cy="253.69" r="2"/></g></svg>