<svg id="cart" xmlns="http://www.w3.org/2000/svg" viewBox="0 0 396 319.6295"><defs><style>.cls-1{fill:none;stroke:#663;stroke-linecap:round;stroke-linejoin:round;stroke-width:8px;}</style></defs><path class="cls-1" d="M101.2625,254.5016A10.817,10.817,0,0,1,88.7405,243.82V90.1946c0-5.3872,3.7011-9.7544,8.2666-9.7544h288.78a7.7881,7.7881,0,0,1,6.2917,3.4275,11.8982,11.8982,0,0,1,1.87,7.8739c-.529,6.7109-6.3965,50.2768-15.0173,110.7161a10.8264,10.8264,0,0,1-9.0049,9.1616Z" transform="translate(-2 -42.4222)"/><path class="cls-1" d="M366.5841,300.95c-119.688,2.2945-208.1434,1.7022-236.3937-.4595-6.4588-.4942-19.5517-1.6629-29.1311-11.31-10.1057-10.1778-11.8233-24.6824-12.16-32.0929L88.7936,94.896c-.9316-19.7679-9.02-29.0972-12.2657-32.3159-7.8-7.7363-18.0832-9.5716-38.33-12.9264A251.28,251.28,0,0,0,6,46.4222" transform="translate(-2 -42.4222)"/><ellipse class="cls-1" cx="130.71" cy="293.1533" rx="21.2613" ry="22.4762"/><ellipse class="cls-1" cx="345.7526" cy="293.1533" rx="21.2613" ry="22.4762"/></svg>