<svg id="Layer_2" data-name="Layer 2" xmlns="http://www.w3.org/2000/svg" viewBox="0 0 1011.98 894.22"><defs><style>.cls-1,.cls-2,.cls-3{fill:none;stroke:#000;stroke-width:14px;}.cls-1,.cls-2{stroke-miterlimit:10;}.cls-2,.cls-3{stroke-linecap:round;}.cls-3{stroke-linejoin:round;}</style></defs><circle class="cls-1" cx="377.99" cy="821.15" r="66.07"/><circle class="cls-1" cx="808.1" cy="821.15" r="66.07"/><path class="cls-2" d="M908.18,789.44l-477.1-.8c-4.61-.37-50.77-4.87-74-44.3-19.05-32.37-8.07-74.69-7.52-76.75a109.15,109.15,0,0,1,13.19-29.94" transform="translate(-34.01 -92.89)"/><path class="cls-3" d="M362.77,637.65l533.31-61.89c14.25-2.25,36-8,54.51-24.66,20.25-18.21,26.44-40.27,35.65-74.85,14.54-54.56,25.33-96.82,32.18-124Q1028.7,304,1039,255.76L240.4,241.52Z" transform="translate(-34.01 -92.89)"/><path class="cls-2" d="M41,101.22c19.56.79,35.36.51,45.95.13,27.23-1,38.81-3.27,57.7,1.19,7.61,1.8,17.38,4.19,28.07,11,18.42,11.73,27.09,28.63,30.74,37.26L367,636.07" transform="translate(-34.01 -92.89)"/></svg>