<svg id="cart" xmlns="http://www.w3.org/2000/svg" viewBox="0 0 394.8071 319.0517"><defs><style>.cls-1{fill:#663;}.cls-2{fill:none;stroke:#663;stroke-linecap:round;stroke-miterlimit:10;stroke-width:2px;}</style></defs><path class="cls-1" d="M388.3948,77.61a5.7775,5.7775,0,0,1,4.3463,2.1122,9.0606,9.0606,0,0,1,1.9759,7.1161l-8.2139,60.3423-8.2138,60.3423c-.4592,3.373-2.6935,6.0635-5.4336,6.5428l-162.9456,28.5L95.4791,262.58a5.2663,5.2663,0,0,1-.9052.0794c-3.5255,0-6.3937-3.5557-6.3937-7.9262V85.5341c0-4.3694,2.8757-7.9242,6.41-7.9242H388.3948m0-2H94.5905c-4.6449,0-8.41,4.4432-8.41,9.9242V254.7333c0,5.5584,3.8382,9.9262,8.3937,9.9262a7.2494,7.2494,0,0,0,1.25-.1093L373.2,216.0356c3.6279-.6345,6.4891-3.97,7.0707-8.243L396.6987,87.108c.821-6.0316-3.1269-11.4981-8.3039-11.4981Z" transform="translate(-2 -40)"/><path class="cls-2" d="M369.858,299.9564c-121.77,2.3345-211.7649,1.7319-240.5068-.4674-6.5712-.5028-19.8919-1.6919-29.6379-11.5074C89.4317,277.6268,87.6842,262.87,87.3412,255.33l-.107-165.0131c-.9478-20.1119-9.1773-29.6035-12.4792-32.8782-7.9361-7.8709-18.3978-9.7381-38.9973-13.1513A255.6578,255.6578,0,0,0,3,41" transform="translate(-2 -40)"/><ellipse class="cls-2" cx="129.9147" cy="295.1844" rx="21.6312" ry="22.8673"/><ellipse class="cls-2" cx="348.6989" cy="295.1844" rx="21.6312" ry="22.8673"/></svg>