<svg xmlns="http://www.w3.org/2000/svg" xmlns:xlink="http://www.w3.org/1999/xlink" viewBox="0 0 765.24 607.71"><defs><style>.cls-1{fill:url(#Green-Plant-Gradient);}.cls-2{fill:url(#Green-Plant-Gradient-2);}.cls-3{fill:url(#Green-Plant-Gradient-3);}.cls-4{fill:url(#Green-Plant-Gradient-4);}.cls-5{fill:url(#Green-Plant-Gradient-5);}.cls-6{fill:url(#Green-Plant-Gradient-6);}.cls-7{fill:url(#Green-Plant-Gradient-7);}.cls-8{fill:url(#Green-Plant-Gradient-8);}.cls-9{fill:url(#Green-Plant-Gradient-9);}.cls-10{fill:url(#Green-Plant-Gradient-10);}.cls-11{fill:url(#Green-Plant-Gradient-11);}.cls-12{fill:url(#Green-Plant-Gradient-12);}.cls-13{fill:url(#Green-Plant-Gradient-13);}.cls-14{fill:url(#Green-Plant-Gradient-14);}.cls-15{fill:url(#Green-Plant-Gradient-15);}.cls-16{fill:url(#Green-Plant-Gradient-16);}.cls-17{fill:url(#Green-Plant-Gradient-17);}.cls-18{fill:url(#Green-Plant-Gradient-18);}.cls-19{fill:url(#Green-Plant-Gradient-19);}.cls-20{fill:url(#Green-Plant-Gradient-20);}.cls-21{fill:url(#Green-Plant-Gradient-21);}.cls-22{fill:url(#Green-Plant-Gradient-22);}.cls-23{fill:url(#Green-Plant-Gradient-23);}.cls-24{fill:url(#Green-Plant-Gradient-24);}.cls-25{fill:url(#linear-gradient);}</style><linearGradient id="Green-Plant-Gradient" x1="373.19" y1="215.9" x2="396.92" y2="94.85" gradientUnits="userSpaceOnUse"><stop offset="0" stop-color="#004b23"/><stop offset="0.5" stop-color="#007200"/><stop offset="1" stop-color="#38b000"/></linearGradient><linearGradient id="Green-Plant-Gradient-2" x1="743.59" y1="424.05" x2="743.59" y2="407.4" xlink:href="#Green-Plant-Gradient"/><linearGradient id="Green-Plant-Gradient-3" x1="721.86" y1="382.27" x2="754.79" y2="347.66" xlink:href="#Green-Plant-Gradient"/><linearGradient id="Green-Plant-Gradient-4" x1="594.82" y1="451.17" x2="651.48" y2="429.41" xlink:href="#Green-Plant-Gradient"/><linearGradient id="Green-Plant-Gradient-5" x1="638.74" y1="398.37" x2="692.54" y2="330.86" xlink:href="#Green-Plant-Gradient"/><linearGradient id="Green-Plant-Gradient-6" x1="678.98" y1="460.12" x2="678.98" y2="394.41" xlink:href="#Green-Plant-Gradient"/><linearGradient id="Green-Plant-Gradient-7" x1="558.27" y1="482.51" x2="730.76" y2="420.27" xlink:href="#Green-Plant-Gradient"/><linearGradient id="Green-Plant-Gradient-8" x1="478.09" y1="477" x2="336.2" y2="418.45" xlink:href="#Green-Plant-Gradient"/><linearGradient id="Green-Plant-Gradient-9" x1="401.72" y1="362.64" x2="374.03" y2="333.37" xlink:href="#Green-Plant-Gradient"/><linearGradient id="Green-Plant-Gradient-10" x1="334.53" y1="381.07" x2="331.93" y2="345.45" xlink:href="#Green-Plant-Gradient"/><linearGradient id="Green-Plant-Gradient-11" x1="500.67" y1="337.11" x2="471.35" y2="291.67" xlink:href="#Green-Plant-Gradient"/><linearGradient id="Green-Plant-Gradient-12" x1="544.55" y1="332.13" x2="528.71" y2="307.57" xlink:href="#Green-Plant-Gradient"/><linearGradient id="Green-Plant-Gradient-13" x1="451.39" y1="342.2" x2="423.91" y2="299.61" xlink:href="#Green-Plant-Gradient"/><linearGradient id="Green-Plant-Gradient-14" x1="478.33" y1="392.86" x2="515.1" y2="329" xlink:href="#Green-Plant-Gradient"/><linearGradient id="Green-Plant-Gradient-15" x1="513.4" y1="454.76" x2="412.52" y2="409.07" xlink:href="#Green-Plant-Gradient"/><linearGradient id="Green-Plant-Gradient-16" x1="497.1" y1="437.86" x2="446.46" y2="373.37" xlink:href="#Green-Plant-Gradient"/><linearGradient id="Green-Plant-Gradient-17" x1="506.12" y1="495.92" x2="364.76" y2="354.56" xlink:href="#Green-Plant-Gradient"/><linearGradient id="Green-Plant-Gradient-18" x1="633.33" y1="348.19" x2="660.23" y2="326.82" xlink:href="#Green-Plant-Gradient"/><linearGradient id="Green-Plant-Gradient-19" x1="605.94" y1="314.9" x2="603.56" y2="295.65" xlink:href="#Green-Plant-Gradient"/><linearGradient id="Green-Plant-Gradient-20" x1="609.31" y1="340.49" x2="627.77" y2="317.54" xlink:href="#Green-Plant-Gradient"/><linearGradient id="Green-Plant-Gradient-21" x1="556.86" y1="365.66" x2="588.69" y2="310.38" xlink:href="#Green-Plant-Gradient"/><linearGradient id="Green-Plant-Gradient-22" x1="690.73" y1="354.08" x2="674.91" y2="329.55" xlink:href="#Green-Plant-Gradient"/><linearGradient id="Green-Plant-Gradient-23" x1="593.48" y1="403.33" x2="596.65" y2="355.85" xlink:href="#Green-Plant-Gradient"/><linearGradient id="Green-Plant-Gradient-24" x1="564.98" y1="491.22" x2="564.98" y2="416.82" xlink:href="#Green-Plant-Gradient"/><linearGradient id="linear-gradient" x1="223.62" y1="798.07" x2="881.1" y2="516.8" gradientUnits="userSpaceOnUse"><stop offset="0" stop-color="#b69121"/><stop offset="0.5" stop-color="#edc531"/><stop offset="1" stop-color="#ffe169"/></linearGradient></defs><g id="Layer_2" data-name="Layer 2"><circle class="cls-1" cx="377.26" cy="195.15" r="15.82"/><path class="cls-2" d="M727.77,401.53a32.21,32.21,0,0,1,6.72-1.85,55.61,55.61,0,0,1,8.71-.4c6.55,0,7.64.37,10-.32a15.53,15.53,0,0,0,6.22-3.63,89.73,89.73,0,0,1-4.49,10.29c-4.26,8.32-7.22,10.86-9,12.13-.76.55-1.62,1.84-2.77,1.71-1.54-.18-1.58-2.41-4-5-1.15-1.26-2.57-2.16-5.4-4-3.41-2.15-3.74-2.77-4.22-3.42A10,10,0,0,1,727.77,401.53Z" transform="translate(-167.25 -278.23)"/><path class="cls-3" d="M724.74,350.63a108,108,0,0,1,11.86-9.89,86.56,86.56,0,0,1,18.73-10.82c4.71-1.92,9.38-3.13,18.72-5.54,4.32-1.11,7.92-1.94,10.42-2.5a121.1,121.1,0,0,0-6.33,11.34c-2.49,5.09-3.9,8.87-4.61,10.68-4.46,11.36-11.13,20.74-15,26.24a157.8,157.8,0,0,1-17.93,21c-4.88,4.88-9.31,8.75-12.75,11.59q-1-13.41-1.79-27.17Q725.29,362.93,724.74,350.63Z" transform="translate(-167.25 -278.23)"/><path class="cls-4" d="M593.26,451.51c1.21.13,2.92.31,5,.5a21.9,21.9,0,0,0,4.35.2,14.89,14.89,0,0,0,5.11-1.58,22.81,22.81,0,0,0,4.13-2.73,56,56,0,0,0,4.71-4.13c1.16-1.1,2.73-2.6,4.54-4.46L606.93,442Z" transform="translate(-167.25 -278.23)"/><path class="cls-5" d="M629,404.69c1.81-1.53,4.34-3.67,7.38-6.2,2.34-1.94,7.14-5.92,11.61-9.49,9.17-7.31,13.75-11,19.91-14.77a137.59,137.59,0,0,1,14.9-7.91,163.81,163.81,0,0,1,19.65-7.65c1.16-1.93,4.43-7.35,8.84-14.64,6.65-11,7.64-12.62,9-16.08a46.54,46.54,0,0,0,3.56-19.13c-.13-3-.48-3.31-.39-5.27.33-7.25,5.6-12.79,10-16.35A50.46,50.46,0,0,0,719.86,291c-8.85,3.9-9.6,8.54-20.44,16.35-5.19,3.74-4.18,2.16-16.88,10.29-1.11.71-6.38,4.09-13.32,8.83-4.7,3.22-8.74,6.09-12,8.44q-2.37,11.74-4.75,23.48a23.43,23.43,0,0,1,1.19,4.35,21.62,21.62,0,0,1,0,8c-1,4.56-4.27,7.32-7.12,9.76-3.89,3.33-7.62,4.88-13.06,7.12a90.34,90.34,0,0,1-9,3.17A23.65,23.65,0,0,1,629,404.69Z" transform="translate(-167.25 -278.23)"/><path class="cls-6" d="M629.83,403.23c2.86-2.38,7-5.76,12-9.75,9.93-7.93,15-12,21.52-16.25a197.83,197.83,0,0,1,17.38-10s27.17-13.87,47.3-16.12l2.31-.27c2.13-.27,5.41-.74,9.36-1.51,4.77-.93,8.57-1.93,10.88-2.57-2.31,2.32-5,5.79-4.55,9.69a12.21,12.21,0,0,0,1.39,4,35.17,35.17,0,0,1,3,11.86c.2,6.33-3.37,11.25-5.54,14.25a35.85,35.85,0,0,1-7.67,7.61,40.69,40.69,0,0,1-4.69,3.07c-1.11.4-2.8,1-4.87,1.71,0,0-3.28,1.12-5.91,2-5.36,1.71-12.18,2-15.81,2.17-6.05.36-10.35,1.06-19,2.46-7.65,1.24-14.34,2.32-22.78,5.25a106.09,106.09,0,0,0-21.56,10.38,78.68,78.68,0,0,0-14.24,10.68,71.1,71.1,0,0,0-6.73,7.52l-14.15,2.71a70.71,70.71,0,0,0,8.58-7c3.88-3.71,7-6.74,9.71-11.85a38.89,38.89,0,0,0,4-13.54A38.26,38.26,0,0,0,629.83,403.23Z" transform="translate(-167.25 -278.23)"/><path class="cls-7" d="M593.26,451.51c4.87.05,7.52,1.71,12.4,0,3.63-1.28,6.38-3.69,9.3-6.27a55.83,55.83,0,0,0,6.92-7.32c5.4-6.88,17.09-16.6,28.68-22.55,11.1-5.69,21.07-7.39,34.62-9.69A171.25,171.25,0,0,1,704,403.11c4.88-.34,7.9-.28,12.66-1.19a57.25,57.25,0,0,0,13-4.15,7.63,7.63,0,0,0-1.19,8.11c.61,1.22,1.46,1.85,3.76,3.36,7.66,5,8.84,5.32,10.09,6.92,2.37,3,2,7,1.78,9.3-.82,8.91-7.92,15-14.64,20.57-4.52,3.77-9.34,6.59-18.79,12.07-9.68,5.62-14.52,8.43-18.59,10.28-8.57,3.92-11.79,4.14-34.22,11.08-14.73,4.56-12.1,4.07-16.22,5.14A126.24,126.24,0,0,1,600.71,489a118.78,118.78,0,0,1-31.84-6.53c-6.27-2.22-19.42-6.88-19-11.28.29-3,6.44-2.5,18.79-8.11C583,456.54,584.62,451.41,593.26,451.51Z" transform="translate(-167.25 -278.23)"/><path class="cls-8" d="M478.87,487.37c-.07,1.24-14.74,2-28.88.79a169.46,169.46,0,0,1-32.44-6.32,201.33,201.33,0,0,1-24.53-9.1c-17.28-7.44-25.93-11.16-33.62-17-22.47-17.1-35.1-45.78-37.88-54a49.36,49.36,0,0,0-6.32-12.79,48.35,48.35,0,0,0-8-8.94,36.84,36.84,0,0,1,13.12,1.25c5.05,1.43,8.39,3.57,12.59,6.26,5.67,3.63,8.66,5.55,11.37,9.4,1.66,2.36,1.61,3.16,5.18,9.39a44.59,44.59,0,0,0,4.22,7c13.14,17.3,23.87,26,23.87,26,5.51,4.46,10.83,7.68,21.49,14.11,10.07,6.08,19,11.5,31.91,17.54,14.95,7,23.86,11.2,37.19,14C474,486.1,478.91,486.66,478.87,487.37Z" transform="translate(-167.25 -278.23)"/><path class="cls-9" d="M347.33,348.52a57.57,57.57,0,0,1,1.21-8.3c1.11-5.05,2.18-6.69,2.55-9.31.43-3.12-.13-7.69-4.75-13.84a108.33,108.33,0,0,1,19.78,3.56c16.29,4.51,15.49,8.4,28.29,10.67,7.13,1.26,13.91,1.49,22.74,6.34a48.9,48.9,0,0,1,4.75,3,29.54,29.54,0,0,1-4.65,2.77c-4.66,2.25-6.54,1.69-10.77,3.31a24.46,24.46,0,0,0-10.1,7,15,15,0,0,0-4,8A13.7,13.7,0,0,0,394,369.9c-3.34-1.36-6.86-2.94-10.51-4.77-4.75-2.37-9-4.84-12.86-7.25a35.4,35.4,0,0,1-2.71,3.55q-1.11,1.27-2.16,2.28-6.48-5.06-13.08-10.59Q350,350.81,347.33,348.52Z" transform="translate(-167.25 -278.23)"/><path class="cls-10" d="M344.82,395.33A177.26,177.26,0,0,1,333,381.88c-8.14-10.23-11.83-17.64-21.1-32.18L296,324.91a62.51,62.51,0,0,1,23.74,4.75c7.06,3,11.89,6.59,19.25,12.13,5.75,4.33,7.36,6.19,18.2,15,4.4,3.6,8.08,6.5,10.55,8.44a44.62,44.62,0,0,0-7.65,3.43c-4,2.3-9.09,5.17-12.39,10.82A25.09,25.09,0,0,0,344.82,395.33Z" transform="translate(-167.25 -278.23)"/><path class="cls-11" d="M439.9,311.4a44.87,44.87,0,0,1,7.78-5.74c3.15-1.83,4.13-1.9,6.73-3.69,2.25-1.55,5-3.42,6.59-6.73a15,15,0,0,0,.92-9.89,28.69,28.69,0,0,0,9.37,6.86c2.49,1.12,6.26,1.82,13.71,3.16,11.39,2.06,11.45,2.07,12.13,2.25,2.55.65,6.84,2.28,15.43,5.53a57.61,57.61,0,0,1,8.44,3.7,49.48,49.48,0,0,1,7.69,5.21c-2.54,2.08-5.26,4.2-8.16,6.33q-3.87,2.83-7.56,5.27l-5.76-1.29a47.42,47.42,0,0,1-20.1-10,31,31,0,0,1-13.55,11.06l-12.78,4.12A40.11,40.11,0,0,0,439.9,311.4Z" transform="translate(-167.25 -278.23)"/><path class="cls-12" d="M513,323.66c2.82-1.85,6.8-4.59,11.39-8.18,4.91-3.83,7.41-5.79,9.69-8.7a34,34,0,0,0,6.33-13.45c1,7,3.64,10.65,5.94,12.66,1,.84,3.34,2.5,8.11,5.74l5.44,3.66c-2.51,1.76-5.13,3.74-7.82,6a121.87,121.87,0,0,0-10.25,9.57q-7.6-2.21-15.83-4.26C521.54,325.56,517.2,324.57,513,323.66Z" transform="translate(-167.25 -278.23)"/><path class="cls-13" d="M427.37,335a97.84,97.84,0,0,1-4.18-15.65c-1-5.71-1-8.57-2.28-14.19a75.84,75.84,0,0,0-4.05-12.61,30.82,30.82,0,0,1,6.82,2.87c5.9,3.36,7.17,6.19,12.56,11.17,7.89,7.3,11.07,6.41,19.33,14.55a69,69,0,0,1,5.63,6.24,46.9,46.9,0,0,0-9,5.18,46.38,46.38,0,0,0-6.79,6.13,48,48,0,0,0-3.64,4.53Z" transform="translate(-167.25 -278.23)"/><path class="cls-14" d="M441.8,343.21a46.6,46.6,0,0,1,17.88-15.13c8-3.86,10.78-2.93,16.22-5.67a30.53,30.53,0,0,0,11.21-10,49.58,49.58,0,0,0,14.51,8.44c2.61,1,3.59,1.08,14,3.43,9.91,2.25,14.76,3.46,18.2,4.35,10.91,2.84,13.44,3.93,15.83,5.28a30.9,30.9,0,0,1,9.26,7.42,29.32,29.32,0,0,1,6.23,13.94,101.41,101.41,0,0,0-9.56,5,93.92,93.92,0,0,0-9.82,6.76c-3.51,2.67-5.37,4.37-6.93,7a19.5,19.5,0,0,0-1.58,3.29,22.42,22.42,0,0,0-5.41,1.19c-2.57.92-3.88,1.95-7.12,4-5.3,3.28-5.36,2.74-7.78,4.48a30,30,0,0,0-7.25,7.52,25.88,25.88,0,0,0-2.24-6.2,27.17,27.17,0,0,0-9.63-10.42l-6-5.34a126,126,0,0,0-17.78-11.93c-4-2.22-6.64-3.38-17.27-8.84-4.4-2.26-8-4.14-10.42-5.41Z" transform="translate(-167.25 -278.23)"/><path class="cls-15" d="M514.53,454.83c-12.54-2.62-22.1-4.71-27.85-5.63,0,0-7.84-1.25-11.37-5.15-.41-.44-.82-.94-.82-.94a30.29,30.29,0,0,1-2.61-3.67,36.31,36.31,0,0,1-2.31-4.48,51.33,51.33,0,0,0-6.33-10.26q11,4.71,22.25,9.86,11,5,21.46,10.09Z" transform="translate(-167.25 -278.23)"/><path class="cls-16" d="M393.62,369.68a16.87,16.87,0,0,1-.6-11.27c1.77-5.59,6.2-8.41,7.91-9.5,1.29-.82,4.24-1.81,10.09-3.76,6.75-2.24,8.61-2.67,10.88-4.55a16.54,16.54,0,0,0,4.55-6.13L437.92,341c17.21,9.8,16.89,9.66,18.79,10.68,15.69,8.4,15.81,6.23,24.53,12.07,4.9,3.28,2.41,2.33,16,13.05,2.88,2.27,5.86,4.57,8.51,8.71,3.19,5,4.25,6.91,3.76,8.7-.4,1.42-1.12,1.25-3,3.76a28.52,28.52,0,0,0-4,8.3A39.36,39.36,0,0,0,501,412a40.94,40.94,0,0,0-.59,9.1A50.33,50.33,0,0,0,503.2,436a47.23,47.23,0,0,0,4.55,9.29l-45.7-20.77c-1.35-2.14-3.2-4.94-5.53-8.11a116.84,116.84,0,0,0-9.3-11.27,107.42,107.42,0,0,0-16-13.65c-2.69-1.89-6.91-4.39-15.23-9.3L400.54,373Z" transform="translate(-167.25 -278.23)"/><path class="cls-17" d="M514.53,454.83c-10.16-2.14-7.71-2.05-13.31-3.06-9-1.62-19.84-2.67-25.12-7.32a26.68,26.68,0,0,1-3-3.16,23.06,23.06,0,0,1-3.56-6.66c-2.13-6-12.78-20.32-24.48-31.7A135.53,135.53,0,0,0,426.64,388c-6.58-4.55-11.34-7.12-33-18.31-9.14-4.71-16.95-8.72-22.95-11.8a35.35,35.35,0,0,1-6.59,7.38c-3.11,2.62-4.64,3-7.92,5.28-2.45,1.73-7.87,5.33-10.28,10.55-1,2.2-2.74,7.05-.79,15.69,1.73,7.69,6.44,18.71,24,35C382.23,443.87,394,451,406.27,458.36A273.81,273.81,0,0,0,439,475.24c12.44,5.33,21.88,9.3,35.34,11.08,6.94.92,14.47,1.85,24,0,8.7-1.69,7-3.35,22.42-7.91,7-2.09,12.24-3.18,18.19-7.65,3.41-2.56,7.13-5.36,6.6-7.91C544.78,459.28,536.42,459.45,514.53,454.83Z" transform="translate(-167.25 -278.23)"/><path class="cls-18" d="M646.51,329.33c2.27-1.16,4.67-2.29,7.22-3.36a111.09,111.09,0,0,1,27.79-7.66c-1.36.95-3.44,2.39-6,4.16-7.82,5.51-11.8,8.29-14.71,10.62-4.91,3.92-4.72,4.37-9.6,8.4a125.59,125.59,0,0,1-13.25,9.6l-7-2.47a64.66,64.66,0,0,0,15.53-19.29Z" transform="translate(-167.25 -278.23)"/><path class="cls-19" d="M584.58,302.93a42.78,42.78,0,0,1,9.11-7.23c4.17-2.44,7-3.07,10.33-6.18a23,23,0,0,0,4.61-6c.1,4.19,1.43,6.33,2.67,7.51a78.82,78.82,0,0,0,7.32,4,18.43,18.43,0,0,1,4,2.77c.52.48.92.9,1.19,1.19a46.63,46.63,0,0,0-9.2,3.85,50.47,50.47,0,0,0-9.59,7,51.71,51.71,0,0,0-5.74,6.23,24.63,24.63,0,0,0-4.65-4.35c-2.38-1.73-3.71-2-5.73-3.66A18.59,18.59,0,0,1,584.58,302.93Z" transform="translate(-167.25 -278.23)"/><path class="cls-20" d="M599.65,314.87a70.07,70.07,0,0,1,7.13-6.54,74.09,74.09,0,0,1,8.35-5.76c4.53-2.67,5.23-2.41,9-5a46.43,46.43,0,0,0,5.77-4.58c.73-.68,1-1,2.89-2.92a72.19,72.19,0,0,1,5.16-5.26,52.84,52.84,0,0,1,9.36-6.59c-3.43,6.07-2.79,10.29-2.37,12a29.55,29.55,0,0,0,2.37,5.67c1.92,3.94,2.86,4.79,3.82,6.86,2,4.22,1.61,8.28,1.32,11.47-.51,5.7-2.54,9.66-4.61,13.72-2.23,4.34-4.56,7.42-9.23,13.58-2.47,3.25-4.6,5.88-6.07,7.65a86.07,86.07,0,0,1-9.63-3.43c-2.39-1-4.59-2.1-6.59-3.17L613,338.93l-7,2a40,40,0,0,0,.23-11.24,25.66,25.66,0,0,0-2.51-9.1A23.53,23.53,0,0,0,599.65,314.87Z" transform="translate(-167.25 -278.23)"/><path class="cls-21" d="M541.8,330.92a73.09,73.09,0,0,1,10.25-10.1c5.15-4.14,8.79-5.89,11.87-7.91,5-3.25,11.37-9,17-20,1.14,6.65,3.75,10.33,5.94,12.47,2.61,2.54,3.86,2.17,8.9,6.13,6.18,4.85,7.79,7.85,8.31,8.9a26.52,26.52,0,0,1,2,6.19,35.38,35.38,0,0,1,.37,13.83c-1.92.71-4.89,1.79-8.57,3-4.63,1.51-6,1.79-10,3.1-3.59,1.17-6.08,2.13-11.08,4-3.27,1.26-7.54,3-12.53,5.05A28.21,28.21,0,0,0,560.56,345a30,30,0,0,0-6.63-7.62,25.44,25.44,0,0,0-9.39-5.74A22.76,22.76,0,0,0,541.8,330.92Z" transform="translate(-167.25 -278.23)"/><path class="cls-22" d="M637.24,350.82A87.84,87.84,0,0,0,648,343.51c3.14-2.5,4.76-4.12,7.25-6.33a129.12,129.12,0,0,1,14.38-10.82c13-8.9,12-6.12,24-14.24,0,0,8.4-5.69,16.61-6.86.94-.13,3.65-.51,4,.27s-1.66,2.06-2.77,2.9c-2.52,1.9-5.46,6-11.34,14.11-.65.9-3.05,4.23-6.07,8.83-4.7,7.17-5.09,8.56-7.91,12.53-2.56,3.6-4.87,6.05-9.5,11a142.71,142.71,0,0,1-15,14.24,123,123,0,0,1-10.88,7.84,18,18,0,0,0,2.71-5.34c.54-1.74,1.87-6,0-10.15-1.3-2.84-3.52-4.21-7.39-6.59A39.14,39.14,0,0,0,637.24,350.82Z" transform="translate(-167.25 -278.23)"/><path class="cls-23" d="M536.82,376.87a47.06,47.06,0,0,1,12.27-13.12c3.27-2.34,6.53-3.9,13-7,5.16-2.47,9.45-4.24,12.27-5.35,6.91-2.72,10.91-3.83,17.7-6,4.9-1.58,12.07-4,20.87-7.32a31.64,31.64,0,0,0,7.12,6.13c3.33,2.1,5.4,2.5,11.37,4.46,11.23,3.66,15.15,5.53,18.79,8.9a12.5,12.5,0,0,1,3.14,3.92c2.55,5.53-.69,11.74-1.55,13.38-1.74,3.32-3.7,5.4-8.11,8.71-7.78,5.84-13.21,10.58-17.51,8.8-2.43-1-2-3-6.63-6.63a37,37,0,0,0-6.13-3.75,66.2,66.2,0,0,0-10.05-4.29l-10-3.56-8-3.17a24.43,24.43,0,0,1-11.73-8.37,16.59,16.59,0,0,1-5,4.45c-2.72,1.52-4.51,1.42-8.9,2.67-.46.13-.26.08-8,3-5.52,2.05-7.95,3-11.47,3.66C538.76,376.6,537.59,376.77,536.82,376.87Z" transform="translate(-167.25 -278.23)"/><path class="cls-24" d="M545.53,470.76c-4.68-.77-22.34-4.25-34.55-20.05a52.32,52.32,0,0,1-10.29-24.26c-.65-4.67-1.79-13.67,2.38-23.47,5.5-13,17.37-18.9,24.26-22.42,8-4.1,10.37-3.24,25-8.7a226.43,226.43,0,0,0,20.84-9,92.21,92.21,0,0,0,19.87,10.57c8.15,3.1,11,2.78,17.84,6.31,6.22,3.2,12.12,6.25,15.83,12.92,5,9.06,2.76,18.94,1.92,22.57a38.46,38.46,0,0,1-4.3,10.66A42.4,42.4,0,0,1,615,436.74c-7,6.14-13.13,9.74-21.76,14.77-8,4.66-13.28,7.19-22.94,11.86a74.71,74.71,0,0,1-11.61,4.75A68.22,68.22,0,0,1,545.53,470.76Z" transform="translate(-167.25 -278.23)"/></g><g id="Layer_1" data-name="Layer 1"><path class="cls-25" d="M884.91,827.42c-52.07,57.78-145.1,58-331.17,58.44-190.67.46-286,.69-339-58.44C119.32,720.84,194.26,523,211.59,481.55a12,12,0,0,1,11.07-7.37H877a12,12,0,0,1,11.07,7.38C905.45,523.12,980.48,721.37,884.91,827.42Z" transform="translate(-167.25 -278.23)"/></g></svg>