<svg id="Layer_1" data-name="Layer 1" xmlns="http://www.w3.org/2000/svg" xmlns:xlink="http://www.w3.org/1999/xlink" viewBox="0 0 1073.8925 670.5116"><defs><style>.cls-1{fill:url(#linear-gradient);}.cls-2{fill:url(#linear-gradient-2);}.cls-3{fill:url(#linear-gradient-3);}.cls-4{fill:url(#linear-gradient-4);}.cls-5{fill:#fff;}.cls-6{fill:url(#linear-gradient-5);}.cls-7{fill:url(#linear-gradient-6);}.cls-8{fill:url(#linear-gradient-7);}.cls-9{fill:url(#linear-gradient-8);}.cls-10{fill:url(#linear-gradient-9);}.cls-11{fill:url(#linear-gradient-10);}.cls-12{fill:url(#linear-gradient-11);}.cls-13{fill:url(#linear-gradient-12);}.cls-14{fill:url(#linear-gradient-13);}.cls-15{fill:url(#linear-gradient-14);}.cls-16{fill:url(#linear-gradient-15);}.cls-17{fill:url(#linear-gradient-16);}.cls-18{fill:url(#linear-gradient-17);}.cls-19{fill:url(#linear-gradient-18);}.cls-20{fill:url(#linear-gradient-19);}.cls-21{fill:url(#linear-gradient-20);}.cls-22{fill:url(#linear-gradient-21);}.cls-23{fill:url(#linear-gradient-22);}.cls-24{fill:url(#linear-gradient-23);}.cls-25{fill:url(#linear-gradient-24);}.cls-26{fill:url(#linear-gradient-25);}.cls-27{fill:url(#linear-gradient-26);}.cls-28{fill:url(#linear-gradient-27);}.cls-29{fill:url(#linear-gradient-28);}.cls-30{fill:url(#linear-gradient-29);}.cls-31{fill:url(#linear-gradient-30);}.cls-32{fill:url(#linear-gradient-31);}.cls-33{fill:url(#linear-gradient-32);}.cls-34{fill:none;stroke:#38b000;stroke-miterlimit:10;}.cls-35{fill:url(#linear-gradient-33);}.cls-36{fill:#173a00;opacity:0.25;isolation:isolate;}.cls-37{fill:url(#linear-gradient-34);}.cls-38{fill:url(#linear-gradient-35);}.cls-39{fill:url(#linear-gradient-36);}.cls-40{fill:url(#linear-gradient-37);}.cls-41{fill:url(#linear-gradient-38);}</style><linearGradient id="linear-gradient" x1="357.1096" y1="663.7952" x2="307.0724" y2="656.6828" gradientTransform="matrix(1, 0, 0, -1, -277.86, 1026.58)" gradientUnits="userSpaceOnUse"><stop offset="0" stop-color="#004b23"/><stop offset="0.5" stop-color="#007200"/><stop offset="1" stop-color="#38b000"/></linearGradient><linearGradient id="linear-gradient-2" x1="338.2379" y1="670.9335" x2="470.5708" y2="720.465" xlink:href="#linear-gradient"/><linearGradient id="linear-gradient-3" x1="527.5708" y1="801.3748" x2="453.8802" y2="773.2334" xlink:href="#linear-gradient"/><linearGradient id="linear-gradient-4" x1="291.5328" y1="385.2492" x2="521.2771" y2="605.2808" gradientTransform="matrix(1, 0, 0, -1, -277.86, 1026.58)" gradientUnits="userSpaceOnUse"><stop offset="0" stop-color="#5a189a"/><stop offset="0.51" stop-color="#9d4edd"/><stop offset="1" stop-color="#e0aaff"/></linearGradient><linearGradient id="linear-gradient-5" x1="583.8405" y1="693.6595" x2="601.9244" y2="785.9078" gradientTransform="matrix(1, 0, 0, -1, -3.1075, 875.64)" xlink:href="#linear-gradient"/><linearGradient id="linear-gradient-6" x1="905.9068" y1="468.8355" x2="905.9068" y2="481.524" gradientTransform="matrix(1, 0, 0, -1, -167.25, 803.77)" xlink:href="#linear-gradient"/><linearGradient id="linear-gradient-7" x1="889.3591" y1="500.6596" x2="914.454" y2="527.0348" gradientTransform="matrix(1, 0, 0, -1, -167.25, 803.77)" xlink:href="#linear-gradient"/><linearGradient id="linear-gradient-8" x1="792.5299" y1="448.1689" x2="835.7086" y2="464.7515" gradientTransform="matrix(1, 0, 0, -1, -167.25, 803.77)" xlink:href="#linear-gradient"/><linearGradient id="linear-gradient-9" x1="825.9954" y1="488.4092" x2="866.9947" y2="539.8564" gradientTransform="matrix(1, 0, 0, -1, -167.25, 803.77)" xlink:href="#linear-gradient"/><linearGradient id="linear-gradient-10" x1="856.7001" y1="441.3477" x2="856.7001" y2="491.4232" gradientTransform="matrix(1, 0, 0, -1, -167.25, 803.77)" xlink:href="#linear-gradient"/><linearGradient id="linear-gradient-11" x1="764.6753" y1="424.2884" x2="896.1244" y2="471.7195" gradientTransform="matrix(1, 0, 0, -1, -167.25, 803.77)" xlink:href="#linear-gradient"/><linearGradient id="linear-gradient-12" x1="703.5668" y1="428.4668" x2="595.437" y2="473.0859" gradientTransform="matrix(1, 0, 0, -1, -167.25, 803.77)" xlink:href="#linear-gradient"/><linearGradient id="linear-gradient-13" x1="645.3503" y1="515.6439" x2="624.2486" y2="537.9497" gradientTransform="matrix(1, 0, 0, -1, -167.25, 803.77)" xlink:href="#linear-gradient"/><linearGradient id="linear-gradient-14" x1="594.147" y1="501.5874" x2="592.1656" y2="528.7323" gradientTransform="matrix(1, 0, 0, -1, -167.25, 803.77)" xlink:href="#linear-gradient"/><linearGradient id="linear-gradient-15" x1="720.7821" y1="535.0902" x2="698.4383" y2="569.7185" gradientTransform="matrix(1, 0, 0, -1, -167.25, 803.77)" xlink:href="#linear-gradient"/><linearGradient id="linear-gradient-16" x1="754.2369" y1="538.8951" x2="742.1657" y2="557.6115" gradientTransform="matrix(1, 0, 0, -1, -167.25, 803.77)" xlink:href="#linear-gradient"/><linearGradient id="linear-gradient-17" x1="683.2261" y1="531.2104" x2="662.2845" y2="563.6669" gradientTransform="matrix(1, 0, 0, -1, -167.25, 803.77)" xlink:href="#linear-gradient"/><linearGradient id="linear-gradient-18" x1="703.7705" y1="492.5965" x2="731.7918" y2="541.2622" gradientTransform="matrix(1, 0, 0, -1, -167.25, 803.77)" xlink:href="#linear-gradient"/><linearGradient id="linear-gradient-19" x1="730.4831" y1="445.4337" x2="653.6057" y2="480.2526" gradientTransform="matrix(1, 0, 0, -1, -167.25, 803.77)" xlink:href="#linear-gradient"/><linearGradient id="linear-gradient-20" x1="718.0556" y1="458.3073" x2="679.4644" y2="507.453" gradientTransform="matrix(1, 0, 0, -1, -167.25, 803.77)" xlink:href="#linear-gradient"/><linearGradient id="linear-gradient-21" x1="724.9307" y1="414.0618" x2="617.2048" y2="521.7877" gradientTransform="matrix(1, 0, 0, -1, -167.25, 803.77)" xlink:href="#linear-gradient"/><linearGradient id="linear-gradient-22" x1="821.8769" y1="526.6465" x2="842.3765" y2="542.9319" gradientTransform="matrix(1, 0, 0, -1, -167.25, 803.77)" xlink:href="#linear-gradient"/><linearGradient id="linear-gradient-23" x1="800.9882" y1="552.0132" x2="799.1744" y2="566.6831" gradientTransform="matrix(1, 0, 0, -1, -167.25, 803.77)" xlink:href="#linear-gradient"/><linearGradient id="linear-gradient-24" x1="803.567" y1="532.5183" x2="817.6348" y2="550.0078" gradientTransform="matrix(1, 0, 0, -1, -167.25, 803.77)" xlink:href="#linear-gradient"/><linearGradient id="linear-gradient-25" x1="763.599" y1="513.3344" x2="787.8556" y2="555.4615" gradientTransform="matrix(1, 0, 0, -1, -167.25, 803.77)" xlink:href="#linear-gradient"/><linearGradient id="linear-gradient-26" x1="865.6464" y1="522.1744" x2="853.5905" y2="540.868" gradientTransform="matrix(1, 0, 0, -1, -167.25, 803.77)" xlink:href="#linear-gradient"/><linearGradient id="linear-gradient-27" x1="791.4878" y1="484.627" x2="793.9036" y2="520.81" gradientTransform="matrix(1, 0, 0, -1, -167.25, 803.77)" xlink:href="#linear-gradient"/><linearGradient id="linear-gradient-28" x1="769.7681" y1="417.6474" x2="769.7681" y2="474.3453" gradientTransform="matrix(1, 0, 0, -1, -167.25, 803.77)" xlink:href="#linear-gradient"/><linearGradient id="linear-gradient-29" x1="509.6508" y1="183.806" x2="1010.6953" y2="398.1529" gradientTransform="matrix(1, 0, 0, -1, -167.25, 803.77)" gradientUnits="userSpaceOnUse"><stop offset="0" stop-color="#b69121"/><stop offset="0.5" stop-color="#edc531"/><stop offset="1" stop-color="#ffe169"/></linearGradient><linearGradient id="linear-gradient-30" x1="1151.9663" y1="317.8481" x2="1303.9752" y2="494.8636" gradientTransform="matrix(1, 0, 0, -1, -268.55, 1055.11)" gradientUnits="userSpaceOnUse"><stop offset="0" stop-color="#002855"/><stop offset="0.49" stop-color="#023e7d"/><stop offset="1" stop-color="#0466c8"/></linearGradient><linearGradient id="linear-gradient-31" x1="954.7441" y1="514.9013" x2="899.7256" y2="712.696" gradientTransform="matrix(1, 0, 0, -1, 0, 1082)" xlink:href="#linear-gradient"/><linearGradient id="linear-gradient-32" x1="973.1134" y1="515.6841" x2="1018.0846" y2="611.2439" gradientTransform="matrix(1, 0, 0, -1, 0, 1082)" xlink:href="#linear-gradient"/><linearGradient id="linear-gradient-33" x1="505.7456" y1="467.2351" x2="485.7961" y2="527.0836" gradientTransform="matrix(1, 0, 0, -1, -102.74, 1070)" xlink:href="#linear-gradient"/><linearGradient id="linear-gradient-34" x1="615.5122" y1="467.3821" x2="630.713" y2="515.83" gradientTransform="matrix(1, 0, 0, -1, -102.74, 1070)" xlink:href="#linear-gradient"/><linearGradient id="linear-gradient-35" x1="574.0397" y1="430.8252" x2="538.8894" y2="524.8754" gradientTransform="matrix(1, 0, 0, -1, -102.74, 1070)" xlink:href="#linear-gradient"/><linearGradient id="linear-gradient-36" x1="571.1543" y1="379.2759" x2="673.7534" y2="450.525" gradientTransform="matrix(1, 0, 0, -1, -102.74, 1070)" xlink:href="#linear-gradient"/><linearGradient id="linear-gradient-37" x1="550.6375" y1="390.8404" x2="451.8385" y2="449.7404" gradientTransform="matrix(1, 0, 0, -1, -102.74, 1070)" xlink:href="#linear-gradient"/><linearGradient id="linear-gradient-38" x1="397.4342" y1="302.9497" x2="725.2002" y2="302.9497" gradientTransform="matrix(1, 0, 0, -1, -102.74, 1070)" gradientUnits="userSpaceOnUse"><stop offset="0" stop-color="#f86509"/><stop offset="1" stop-color="#e99e30"/></linearGradient></defs><g id="Cactus-1"><g id="Cactus"><path class="cls-1" d="M80.0052,364.4576l-4.2569,17.663c-22.7433,8.6-42.4095,1.7432-47.0178-9.6839-2.7352-6.7945-.4816-16.0835,5.0369-20.88C43.066,343.51,63.6857,346.4045,80.0052,364.4576Z" transform="translate(-3.1075 -206.36)"/><path class="cls-2" d="M165.0361,422.6521H96.0791c-51.973-76.2765-44.172-154.9655-6.0964-182.12,22.6326-16.1462,58.9169-16.175,81.53,0C209.4922,267.6866,217.1439,346.3708,165.0361,422.6521Z" transform="translate(-3.1075 -206.36)"/><path class="cls-3" d="M192.3637,276.4989a24.2119,24.2119,0,0,1-18.13-19.9841c8.4366-35.1045,33.2842-53.5331,51.1639-49.6423,10.6277,2.3162,20.1719,12.8187,21.4335,23.6245C248.945,248.6368,228.1616,271.539,192.3637,276.4989Z" transform="translate(-3.1075 -206.36)"/></g><path class="cls-4" d="M179.94,675.0481H78.7387A75.6263,75.6263,0,0,1,3.1075,599.4266V434.474A11.8845,11.8845,0,0,1,14.992,422.59H243.6866A11.8844,11.8844,0,0,1,255.571,434.474V599.4218a75.6263,75.6263,0,0,1-75.6263,75.6263Z" transform="translate(-3.1075 -206.36)"/><g id="Thorns"><circle class="cls-5" cx="45.2603" cy="164.7477" r="0.4815"/><circle class="cls-5" cx="53.6198" cy="175.9243" r="0.4815"/><circle class="cls-5" cx="56.6632" cy="149.2564" r="0.4815"/><circle class="cls-5" cx="30.7562" cy="146.7139" r="0.4815"/><circle class="cls-5" cx="31.2377" cy="168.8408" r="0.4815"/><circle class="cls-5" cx="61.9987" cy="164.7477" r="0.4815"/><circle class="cls-5" cx="81.0485" cy="52.3314" r="0.4815"/><circle class="cls-5" cx="151.9173" cy="44.3522" r="0.4815"/><circle class="cls-5" cx="117.6266" cy="128.2804" r="0.4815"/><circle class="cls-5" cx="147.3426" cy="91.1967" r="0.4815"/><circle class="cls-5" cx="98.8319" cy="195.4846" r="0.4815"/><circle class="cls-5" cx="165.6316" cy="162.1233" r="0.4815"/><circle class="cls-5" cx="75.3904" cy="107.1984" r="0.4815"/><circle class="cls-5" cx="177.3139" cy="119.3863" r="0.4815"/><circle class="cls-5" cx="118.5897" cy="71.6364" r="0.4815"/><circle class="cls-5" cx="151.9173" cy="211.231" r="0.4815"/><circle class="cls-5" cx="97.0502" cy="155.8584" r="0.4815"/><circle class="cls-5" cx="147.8242" cy="146.7139" r="0.4815"/><circle class="cls-5" cx="176.0474" cy="68.1453" r="0.4815"/><circle class="cls-5" cx="135.6604" cy="178.4668" r="0.4815"/><circle class="cls-5" cx="114.068" cy="31.1435" r="0.4815"/><circle class="cls-5" cx="45.2603" cy="150.2195" r="0.4815"/><circle class="cls-5" cx="107.0856" cy="98.1791" r="0.4815"/><circle class="cls-5" cx="126.0488" cy="205.2599" r="0.4815"/><circle class="cls-5" cx="189.7618" cy="39.8353" r="0.4815"/><circle class="cls-5" cx="187.7297" cy="64.9815" r="0.4815"/><circle class="cls-5" cx="185.5627" cy="52.8274" r="0.496"/><circle class="cls-5" cx="174.0249" cy="48.9895" r="0.496"/><circle class="cls-5" cx="199.4456" cy="10.8898" r="0.496"/><circle class="cls-5" cx="232.701" cy="34.0038" r="0.496"/><circle class="cls-5" cx="210.603" cy="52.3458" r="0.496"/><circle class="cls-5" cx="213.1455" cy="28.1627" r="0.496"/><circle class="cls-5" cx="226.6046" cy="14.954" r="0.496"/><circle class="cls-5" cx="194.3461" cy="26.6362" r="0.496"/><circle class="cls-5" cx="218.221" cy="40.808" r="0.496"/><circle class="cls-5" cx="84.2364" cy="81.2481" r="0.496"/><circle class="cls-5" cx="147.3571" cy="114.7779" r="0.496"/><circle class="cls-5" cx="77.3888" cy="141.4458" r="0.496"/><circle class="cls-5" cx="166.6092" cy="193.2647" r="0.496"/><circle class="cls-5" cx="86.9041" cy="176.9018" r="0.496"/><circle class="cls-5" cx="185.5627" cy="149.266" r="0.496"/><circle class="cls-5" cx="182.919" cy="94.9624" r="0.496"/><circle class="cls-5" cx="148.8017" cy="64.9912" r="0.496"/><circle class="cls-5" cx="128.0327" cy="48.975" r="0.4815"/><circle class="cls-5" cx="126.0488" cy="156.8215" r="0.4815"/><circle class="cls-5" cx="214.1182" cy="4.2734" r="0.4815"/></g></g><g id="Layer_2" data-name="Layer 2"><circle class="cls-6" cx="583.8329" cy="166.1673" r="12.0559"/><path class="cls-7" d="M726.597,317.7727a24.5463,24.5463,0,0,1,5.1211-1.41,42.3839,42.3839,0,0,1,6.6376-.3049c4.9916,0,5.8223.282,7.6207-.2438a11.8366,11.8366,0,0,0,4.74-2.7663,68.404,68.404,0,0,1-3.4217,7.8417c-3.2464,6.34-5.5021,8.276-6.8586,9.2438-.5792.4192-1.2346,1.4022-2.111,1.3032-1.1735-.1372-1.204-1.8366-3.0482-3.81a20.8018,20.8018,0,0,0-4.1152-3.0482c-2.5987-1.6385-2.85-2.111-3.2159-2.6063A7.6213,7.6213,0,0,1,726.597,317.7727Z" transform="translate(-3.1075 -206.36)"/><path class="cls-8" d="M724.288,278.9834a82.3041,82.3041,0,0,1,9.0381-7.5368A65.96,65.96,0,0,1,747.6,263.201c3.5893-1.4632,7.1482-2.3853,14.2659-4.2219,3.2921-.8458,6.0355-1.4784,7.9407-1.9051a92.27,92.27,0,0,0-4.8239,8.6418c-1.8975,3.8789-2.9721,6.76-3.5131,8.1389-3.3989,8.6571-8.4818,15.8053-11.431,19.9967a120.2676,120.2676,0,0,1-13.6639,16.0034c-3.7189,3.7189-7.0949,6.6681-9.7164,8.8323q-.762-10.2192-1.3641-20.7054Q724.7072,288.357,724.288,278.9834Z" transform="translate(-3.1075 -206.36)"/><path class="cls-9" d="M624.0913,355.8609c.9221.099,2.2252.2362,3.81.381a16.6867,16.6867,0,0,0,3.315.1524,11.3465,11.3465,0,0,0,3.8941-1.204,17.3862,17.3862,0,0,0,3.1474-2.08,42.674,42.674,0,0,0,3.5893-3.1473c.884-.8383,2.0805-1.9814,3.46-3.3989l-10.7985,2.05Z" transform="translate(-3.1075 -206.36)"/><path class="cls-10" d="M651.3276,320.1808c1.3793-1.1659,3.3074-2.7968,5.624-4.7248,1.7833-1.4784,5.4412-4.5114,8.8476-7.232,6.9882-5.5707,10.4785-8.3828,15.1728-11.2557a104.86,104.86,0,0,1,11.3548-6.028,124.82,124.82,0,0,1,14.9747-5.83c.884-1.4708,3.3759-5.6012,6.7367-11.1567,5.0677-8.3828,5.8222-9.6173,6.8586-12.2541a35.4687,35.4687,0,0,0,2.713-14.5783c-.0991-2.2862-.3658-2.5225-.2973-4.0161.2515-5.525,4.2676-9.7469,7.6207-12.46a38.4527,38.4527,0,0,0-10.3641,2.8958c-6.7443,2.9721-7.3159,6.5081-15.5767,12.46-3.9551,2.85-3.1854,1.6461-12.8637,7.8417-.8459.5411-4.862,3.1169-10.1508,6.7291-3.5817,2.4538-6.66,4.641-9.1448,6.4318q-1.8061,8.9468-3.62,17.8934a17.8548,17.8548,0,0,1,.9069,3.315,16.478,16.478,0,0,1,0,6.0965c-.7621,3.4751-3.2541,5.5784-5.426,7.4378-2.9644,2.5377-5.8069,3.7189-9.9526,5.426a68.8479,68.8479,0,0,1-6.8586,2.4157A18.0233,18.0233,0,0,1,651.3276,320.1808Z" transform="translate(-3.1075 -206.36)"/><path class="cls-11" d="M651.96,319.0682c2.1795-1.8137,5.3345-4.3895,9.1448-7.43,7.5674-6.0432,11.431-9.1449,16.4-12.3836a150.7593,150.7593,0,0,1,13.2448-7.6207s20.7054-10.57,36.0458-12.2846l1.76-.2057c1.6232-.2058,4.1227-.5639,7.1329-1.1507,3.6351-.7088,6.5309-1.4708,8.2913-1.9586-1.76,1.768-3.81,4.4124-3.4674,7.3845a9.3078,9.3078,0,0,0,1.0593,3.0483,26.801,26.801,0,0,1,2.2862,9.0381c.1524,4.8239-2.5682,8.5732-4.2218,10.8594a27.3214,27.3214,0,0,1-5.8451,5.7994,31.0024,31.0024,0,0,1-3.5741,2.3395c-.8459.3048-2.1338.7621-3.7113,1.3032,0,0-2.5.8535-4.5038,1.5241-4.0846,1.3031-9.2819,1.5241-12.0482,1.6537a132.2522,132.2522,0,0,0-14.4793,1.8747,94.5553,94.5553,0,0,0-17.36,4.0008,80.85,80.85,0,0,0-16.43,7.91,59.96,59.96,0,0,0-10.8518,8.1389,54.1758,54.1758,0,0,0-5.1287,5.7307L634.92,348.705a53.88,53.88,0,0,0,6.5386-5.3345c2.9568-2.8272,5.3345-5.1363,7.4-9.0305a29.6361,29.6361,0,0,0,3.0482-10.3184A29.15,29.15,0,0,0,651.96,319.0682Z" transform="translate(-3.1075 -206.36)"/><path class="cls-12" d="M624.0913,355.8609c3.7112.0381,5.7307,1.3031,9.45,0,2.7663-.9755,4.862-2.8121,7.0873-4.7782a42.5515,42.5515,0,0,0,5.2735-5.5783c4.1151-5.2431,13.0237-12.65,21.8561-17.1847,8.4589-4.3361,16.0567-5.6317,26.3827-7.3844a130.4981,130.4981,0,0,1,14.3422-1.9585,71.048,71.048,0,0,0,9.6477-.9069,43.6264,43.6264,0,0,0,9.9069-3.1626,5.8148,5.8148,0,0,0-.9068,6.18c.4648.93,1.1126,1.41,2.8653,2.56,5.8375,3.81,6.7367,4.0542,7.6893,5.2735,1.8061,2.2862,1.5242,5.3345,1.3565,7.0873-.6249,6.79-6.0355,11.431-11.1567,15.6757-3.4445,2.873-7.1177,5.022-14.3192,9.1982-7.3768,4.2828-11.0652,6.4242-14.1669,7.834-6.5309,2.9873-8.9847,3.155-26.078,8.4437-11.2252,3.4751-9.221,3.1016-12.3607,3.9171a96.2047,96.2047,0,0,1-31.1914,3.3531,90.5216,90.5216,0,0,1-24.2643-4.9763c-4.7782-1.6918-14.7993-5.243-14.4793-8.5961.221-2.2862,4.9078-1.9052,14.3193-6.18C616.2725,359.6941,617.507,355.7847,624.0913,355.8609Z" transform="translate(-3.1075 -206.36)"/><path class="cls-13" d="M536.9183,383.1886c-.0533.945-11.2329,1.5241-22.0085.6021a129.1387,129.1387,0,0,1-24.7215-4.8163,153.4477,153.4477,0,0,1-18.6935-6.9348c-13.1686-5.67-19.76-8.5047-25.6207-12.9552-17.1237-13.0314-26.7486-34.8875-28.8672-41.1517a37.611,37.611,0,0,0-4.8163-9.7468,36.8411,36.8411,0,0,0-6.0965-6.8129,28.0718,28.0718,0,0,1,9.9983.9526c3.8485,1.09,6.3938,2.7206,9.5945,4.77,4.3209,2.7663,6.6,4.23,8.6647,7.1635,1.265,1.7984,1.2269,2.4081,3.9475,7.1558a33.9886,33.9886,0,0,0,3.2159,5.3345c10.0136,13.1837,18.1906,19.8137,18.1906,19.8137,4.199,3.3988,8.2531,5.8527,16.3768,10.7528A239.6247,239.6247,0,0,0,500.4,370.6831c11.3929,5.3344,18.1829,8.5351,28.3413,10.6689C533.207,382.2208,536.9488,382.6475,536.9183,383.1886Z" transform="translate(-3.1075 -206.36)"/><path class="cls-14" d="M436.6759,277.3755a43.8726,43.8726,0,0,1,.9221-6.3252c.8459-3.8484,1.6613-5.0982,1.9432-7.0948.3277-2.3777-.099-5.86-3.62-10.5471a82.5532,82.5532,0,0,1,15.0737,2.713c12.4141,3.4369,11.8044,6.4014,21.5589,8.1313,5.4336.96,10.6,1.1355,17.33,4.8315a37.2755,37.2755,0,0,1,3.62,2.2862,22.51,22.51,0,0,1-3.5436,2.1109c-3.5513,1.7147-4.984,1.2879-8.2075,2.5225a18.64,18.64,0,0,0-7.6969,5.3344,11.4315,11.4315,0,0,0-3.0483,6.0966,10.44,10.44,0,0,0,1.2346,6.2337c-2.5453-1.0364-5.2278-2.24-8.0093-3.6351-3.62-1.8061-6.8586-3.6884-9.8-5.525a26.9948,26.9948,0,0,1-2.0652,2.7054q-.8458.9678-1.6461,1.7375-4.9382-3.856-9.9678-8.07Q438.7106,279.1206,436.6759,277.3755Z" transform="translate(-3.1075 -206.36)"/><path class="cls-15" d="M434.7631,313.0479a135.0892,135.0892,0,0,1-9.0076-10.25c-6.2033-7.796-9.0153-13.4429-16.08-24.5234l-12.1169-18.8916a47.634,47.634,0,0,1,18.0915,3.62c5.38,2.2862,9.061,5.022,14.67,9.2439,4.3819,3.3,5.6088,4.7172,13.87,11.431,3.3531,2.7434,6.1575,4.9534,8.04,6.4318a34.0051,34.0051,0,0,0-5.83,2.6139c-3.0483,1.7528-6.9272,3.94-9.4421,8.2456A19.12,19.12,0,0,0,434.7631,313.0479Z" transform="translate(-3.1075 -206.36)"/><path class="cls-16" d="M507.2205,249.0875a34.1932,34.1932,0,0,1,5.9289-4.3743c2.4-1.3945,3.1474-1.4479,5.1287-2.812a13.4266,13.4266,0,0,0,5.0221-5.1287,11.4316,11.4316,0,0,0,.7011-7.5369,21.8636,21.8636,0,0,0,7.14,5.2278c1.8976.8535,4.7706,1.387,10.448,2.4081,8.68,1.57,8.7257,1.5775,9.2439,1.7147,1.9432.4953,5.2125,1.7375,11.7587,4.2142a43.9125,43.9125,0,0,1,6.4318,2.82,37.7088,37.7088,0,0,1,5.86,3.97c-1.9356,1.585-4.0084,3.2006-6.2184,4.8238q-2.9493,2.1567-5.7612,4.0161l-4.39-.983a36.1383,36.1383,0,0,1-15.3175-7.6207,23.6246,23.6246,0,0,1-10.326,8.4284l-9.7393,3.14A30.5667,30.5667,0,0,0,507.2205,249.0875Z" transform="translate(-3.1075 -206.36)"/><path class="cls-17" d="M562.9277,258.4305c2.149-1.41,5.182-3.4979,8.68-6.2337,3.7417-2.9187,5.6469-4.4124,7.3844-6.63a25.9116,25.9116,0,0,0,4.8239-10.25c.7621,5.3345,2.7739,8.1161,4.5267,9.6478.7621.64,2.5453,1.9052,6.18,4.3743l4.1457,2.7892c-1.9128,1.3412-3.9094,2.85-5.9594,4.5724a92.8573,92.8573,0,0,0-7.8112,7.293q-5.7917-1.6842-12.0635-3.2465C569.4357,259.8784,566.1284,259.124,562.9277,258.4305Z" transform="translate(-3.1075 -206.36)"/><path class="cls-18" d="M497.6718,267.0723a74.5644,74.5644,0,0,1-3.1854-11.9263c-.7621-4.3514-.7621-6.531-1.7375-10.8138a57.793,57.793,0,0,0-3.0864-9.61A23.488,23.488,0,0,1,494.86,236.91c4.4962,2.5605,5.464,4.7172,9.5716,8.5123,6.0127,5.5631,8.4361,4.8848,14.7307,11.0881a52.57,52.57,0,0,1,4.29,4.7553,35.7366,35.7366,0,0,0-6.8586,3.9475,35.34,35.34,0,0,0-5.1745,4.6715,36.5781,36.5781,0,0,0-2.7739,3.4521Z" transform="translate(-3.1075 -206.36)"/><path class="cls-19" d="M508.6684,273.3289a35.5125,35.5125,0,0,1,13.6258-11.53c6.0966-2.9416,8.2151-2.2329,12.3608-4.3209a23.266,23.266,0,0,0,8.5427-7.6207,37.7816,37.7816,0,0,0,11.0577,6.4318c1.9889.7621,2.7358.8231,10.6689,2.6139,7.5521,1.7147,11.2481,2.6368,13.87,3.315,8.3141,2.1643,10.2421,2.9949,12.0635,4.0237a23.55,23.55,0,0,1,7.0568,5.6546,22.3429,22.3429,0,0,1,4.7476,10.6232,77.2914,77.2914,0,0,0-7.2853,3.81,71.5635,71.5635,0,0,0-7.4836,5.1516c-2.6748,2.0347-4.0923,3.33-5.2811,5.3344a14.8685,14.8685,0,0,0-1.2041,2.5072,17.0879,17.0879,0,0,0-4.1227.9069c-1.9585.7011-2.9569,1.486-5.4259,3.0483-4.039,2.5-4.0847,2.088-5.929,3.414a22.8607,22.8607,0,0,0-5.5249,5.7308,19.7219,19.7219,0,0,0-1.7071-4.7248,20.7051,20.7051,0,0,0-7.3387-7.9408l-4.5724-4.0694a96.0214,96.0214,0,0,0-13.55-9.0915c-3.0482-1.6918-5.06-2.5758-13.1609-6.7367-3.3531-1.7223-6.0965-3.155-7.9407-4.1228Z" transform="translate(-3.1075 -206.36)"/><path class="cls-20" d="M564.0937,358.3909c-9.5564-1.9966-16.8417-3.5893-21.2236-4.29,0,0-5.9746-.9526-8.6647-3.9247-.3125-.3353-.6249-.7163-.6249-.7163a23.0916,23.0916,0,0,1-1.989-2.7968,27.6709,27.6709,0,0,1-1.76-3.4141,39.1133,39.1133,0,0,0-4.8239-7.8188q8.3827,3.5893,16.956,7.514,8.3827,3.81,16.354,7.6892Z" transform="translate(-3.1075 -206.36)"/><path class="cls-21" d="M471.952,293.5008a12.8562,12.8562,0,0,1-.4572-8.5885,13.5261,13.5261,0,0,1,6.0279-7.24c.9831-.6249,3.2312-1.3794,7.6893-2.8654,5.144-1.707,6.5614-2.0347,8.2913-3.4674a12.6049,12.6049,0,0,0,3.4674-4.6715l8.7409,4.9763c13.1152,7.4683,12.8714,7.3616,14.3193,8.1389,11.9569,6.4014,12.0483,4.7477,18.6935,9.1982,3.7342,2.5,1.8366,1.7756,12.1931,9.945a25.6759,25.6759,0,0,1,6.4852,6.6376c2.431,3.81,3.2388,5.2658,2.8654,6.63-.3048,1.0821-.8535.9525-2.2862,2.8653a21.7355,21.7355,0,0,0-3.0483,6.3252,30.0021,30.0021,0,0,0-1.1507,4.3667,31.1925,31.1925,0,0,0-.45,6.9348,38.3561,38.3561,0,0,0,2.1261,11.3548,35.9938,35.9938,0,0,0,3.4674,7.08L524.1,335.2927c-1.0288-1.6309-2.4386-3.7647-4.2142-6.18a89.0533,89.0533,0,0,0-7.0872-8.5885,81.86,81.86,0,0,0-12.1931-10.4022c-2.05-1.44-5.2659-3.3455-11.6063-7.0872l-11.774-7.0035Z" transform="translate(-3.1075 -206.36)"/><path class="cls-22" d="M564.0937,358.3909c-7.7426-1.6308-5.8756-1.5622-10.1431-2.3319-6.8587-1.2346-15.12-2.0347-19.1432-5.5784a20.33,20.33,0,0,1-2.2862-2.4081,17.573,17.573,0,0,1-2.713-5.0754c-1.6232-4.5724-9.7392-15.4852-18.6554-24.1575a103.28,103.28,0,0,0-14.0373-11.3777c-5.0144-3.4674-8.6418-5.4259-25.1482-13.9534-6.9653-3.5894-12.9171-6.6453-17.49-8.9924a26.94,26.94,0,0,1-5.022,5.624c-2.37,1.9966-3.536,2.2862-6.0356,4.0237-1.8671,1.3184-5.9975,4.0619-7.8341,8.04-.762,1.6765-2.088,5.3725-.602,11.9568,1.3184,5.86,4.9077,14.2583,18.29,26.6724,9.9984,9.2058,18.9679,14.6393,28.3185,20.2481a208.65,208.65,0,0,0,24.9425,12.8637c9.48,4.0618,16.674,7.0872,26.9314,8.4437,5.2888.7011,11.0272,1.41,18.29,0,6.63-1.2879,5.3345-2.5529,17.0855-6.0279,5.3345-1.5928,9.3278-2.4234,13.8621-5.83,2.5986-1.9508,5.4335-4.0846,5.03-6.0279C587.1462,361.7821,580.7753,361.9117,564.0937,358.3909Z" transform="translate(-3.1075 -206.36)"/><path class="cls-23" d="M664.6714,262.7514c1.73-.884,3.5588-1.7452,5.5021-2.5606a84.6605,84.6605,0,0,1,21.1779-5.8374c-1.0364.724-2.6216,1.8214-4.5725,3.17-5.9593,4.199-8.9923,6.3176-11.21,8.0932-3.7417,2.9873-3.5969,3.33-7.3158,6.4013a95.7238,95.7238,0,0,1-10.0974,7.3159l-5.3345-1.8823a49.2749,49.2749,0,0,0,11.8349-14.7Z" transform="translate(-3.1075 -206.36)"/><path class="cls-24" d="M617.4765,242.6328a32.6015,32.6015,0,0,1,6.9425-5.51c3.1778-1.8594,5.3344-2.3395,7.8721-4.7095a17.5281,17.5281,0,0,0,3.5132-4.5724c.0761,3.193,1.09,4.8238,2.0347,5.7231a60.06,60.06,0,0,0,5.5783,3.0483,14.0442,14.0442,0,0,1,3.0483,2.1109c.3963.3658.7011.6858.9068.9068a35.5411,35.5411,0,0,0-7.011,2.934,38.46,38.46,0,0,0-7.3082,5.3345,39.4038,39.4038,0,0,0-4.3743,4.7477,18.7706,18.7706,0,0,0-3.5436-3.315c-1.8138-1.3184-2.8273-1.5242-4.3667-2.7892A14.168,14.168,0,0,1,617.4765,242.6328Z" transform="translate(-3.1075 -206.36)"/><path class="cls-25" d="M628.9609,251.7319a53.4023,53.4023,0,0,1,5.4335-4.9839,56.4527,56.4527,0,0,1,6.3633-4.39c3.4522-2.0347,3.9856-1.8365,6.8586-3.81a35.3754,35.3754,0,0,0,4.3972-3.49c.5563-.5182.762-.762,2.2023-2.2252a55.0439,55.0439,0,0,1,3.9323-4.0085,40.2634,40.2634,0,0,1,7.1329-5.022c-2.6138,4.6257-2.1261,7.8417-1.8061,9.1448a22.52,22.52,0,0,0,1.8061,4.3209c1.4632,3.0026,2.18,3.65,2.9111,5.2278,1.5242,3.2159,1.227,6.31,1.006,8.7409-.3887,4.3438-1.9357,7.3616-3.5131,10.4556-1.6994,3.3074-3.4751,5.6546-7.0339,10.3489-1.8823,2.4767-3.5055,4.4809-4.6258,5.83a65.609,65.609,0,0,1-7.3387-2.6139c-1.8213-.7621-3.4979-1.6-5.022-2.4158l-2.53-2.7739L633.8,271.5914a30.4826,30.4826,0,0,0,.1753-8.5657,19.5568,19.5568,0,0,0-1.9128-6.9348A17.9323,17.9323,0,0,0,628.9609,251.7319Z" transform="translate(-3.1075 -206.36)"/><path class="cls-26" d="M584.8752,263.9631a55.6956,55.6956,0,0,1,7.8112-7.6969,82.0111,82.0111,0,0,1,9.0458-6.028c3.81-2.4767,8.6647-6.8586,12.9551-15.2413.8688,5.0677,2.8578,7.8721,4.5267,9.503,1.989,1.9356,2.9416,1.6537,6.7824,4.6714,4.71,3.6961,5.9365,5.9823,6.3328,6.7825a20.2126,20.2126,0,0,1,1.5242,4.7172,26.9606,26.9606,0,0,1,.2819,10.5393c-1.4631.5411-3.7265,1.3642-6.5309,2.2862-3.5284,1.1508-4.5724,1.3642-7.6207,2.3625-2.7358.8916-4.6334,1.6232-8.4437,3.0482-2.492.96-5.746,2.2862-9.5487,3.8485a21.4991,21.4991,0,0,0-2.82-8.0627,22.86,22.86,0,0,0-5.0525-5.807,19.3867,19.3867,0,0,0-7.1558-4.3742A17.33,17.33,0,0,0,584.8752,263.9631Z" transform="translate(-3.1075 -206.36)"/><path class="cls-27" d="M657.607,279.1282a66.9488,66.9488,0,0,0,8.2-5.5707c2.3929-1.9051,3.6274-3.14,5.525-4.8239a98.3956,98.3956,0,0,1,10.9585-8.2455c9.9069-6.7824,9.1448-4.6639,18.29-10.8519,0,0,6.4014-4.3361,12.658-5.2278.7163-.099,2.7815-.3886,3.0482.2058s-1.265,1.57-2.1109,2.21c-1.92,1.4479-4.1609,4.5724-8.6419,10.7528-.4953.6858-2.3243,3.2235-4.6257,6.729-3.5818,5.464-3.879,6.5233-6.028,9.5487a77.3467,77.3467,0,0,1-7.24,8.3828,108.7532,108.7532,0,0,1-11.431,10.8518,93.7589,93.7589,0,0,1-8.2913,5.9746,13.7171,13.7171,0,0,0,2.0652-4.0694c.4115-1.326,1.425-4.5724,0-7.735-.9907-2.1643-2.6825-3.2083-5.6317-5.022A29.8277,29.8277,0,0,0,657.607,279.1282Z" transform="translate(-3.1075 -206.36)"/><path class="cls-28" d="M581.08,298.98a35.8619,35.8619,0,0,1,9.3505-9.9983c2.492-1.7833,4.9764-2.9721,9.9069-5.3345,3.9323-1.8823,7.2016-3.2312,9.3506-4.0771,5.2659-2.0728,8.3142-2.9187,13.4886-4.5724,3.7342-1.204,9.1982-3.0483,15.9044-5.5783a24.1146,24.1146,0,0,0,5.4259,4.6715c2.5377,1.6,4.1152,1.9051,8.6647,3.3988,8.558,2.7891,11.5454,4.2142,14.3193,6.7824a9.5275,9.5275,0,0,1,2.3929,2.9873c1.9432,4.2142-.5259,8.9467-1.1812,10.1965-1.326,2.53-2.82,4.1151-6.18,6.6376-5.9289,4.45-10.0669,8.0626-13.3438,6.7062-1.8518-.7621-1.5241-2.2862-5.0525-5.0526a28.2081,28.2081,0,0,0-4.6715-2.8577,50.4508,50.4508,0,0,0-7.6588-3.2693l-7.6207-2.7129-6.0965-2.4158a18.6166,18.6166,0,0,1-8.939-6.3785,12.6428,12.6428,0,0,1-3.81,3.3912c-2.0728,1.1583-3.4369,1.0821-6.7824,2.0347-.3506.0991-.1982.061-6.0966,2.2862a50.4339,50.4339,0,0,1-8.7409,2.7892C582.5586,298.7744,581.667,298.9039,581.08,298.98Z" transform="translate(-3.1075 -206.36)"/><path class="cls-29" d="M587.7178,370.5307c-3.5665-.5868-17.0246-3.2388-26.33-15.28a39.872,39.872,0,0,1-7.8416-18.4878c-.4954-3.5588-1.3641-10.4174,1.8137-17.8857,4.1914-9.9069,13.2371-14.4031,18.4877-17.0856,6.0966-3.1245,7.9027-2.4691,19.0517-6.63a172.55,172.55,0,0,0,15.8816-6.8586,70.2674,70.2674,0,0,0,15.1422,8.0551c6.2109,2.3624,8.3828,2.1185,13.5954,4.8086,4.74,2.4387,9.2362,4.763,12.0635,9.846,3.81,6.9043,2.1033,14.4335,1.4632,17.2a29.3119,29.3119,0,0,1-3.2769,8.1237,32.3113,32.3113,0,0,1-7.11,8.2684c-5.3345,4.6791-10.0059,7.4225-16.5826,11.2557-6.0965,3.5513-10.12,5.4793-17.4818,9.0382a56.9377,56.9377,0,0,1-8.8476,3.62A51.998,51.998,0,0,1,587.7178,370.5307Z" transform="translate(-3.1075 -206.36)"/></g><g id="Layer_1-2" data-name="Layer 1"><path class="cls-30" d="M846.3484,642.33c-39.6809,44.0323-110.5761,44.2-252.3741,44.5353-145.3035.3505-217.9514.5258-258.341-44.5353-72.7165-81.2212-15.6072-231.9887-2.4005-263.5764a9.1448,9.1448,0,0,1,8.4361-5.6165H840.32a9.1449,9.1449,0,0,1,8.4361,5.6241C862.0013,410.4325,919.1792,561.5125,846.3484,642.33Z" transform="translate(-3.1075 -206.36)"/></g><g id="Cactus-2"><path class="cls-31" d="M1042.7955,731.6226c-45.6115,45.6075-120.6717,45.6075-166.2792,0-44.5619-44.5619-45.5873-117.2389-3.0721-163.0936a9.9092,9.9092,0,0,1,7.2588-3.1856h157.9018a9.9051,9.9051,0,0,1,7.2588,3.1856C1088.3788,614.3837,1087.3534,687.0607,1042.7955,731.6226Z" transform="translate(-3.1075 -206.36)"/><path class="cls-32" d="M927.9357,345.1075h0a35.9293,35.9293,0,0,1,35.9292,35.9292h0V565.3434H892.0066V381.0367a35.9292,35.9292,0,0,1,35.9291-35.9292Z" transform="translate(-3.1075 -206.36)"/><path class="cls-33" d="M1000.0007,431.84h0a27.3045,27.3045,0,0,1,27.3046,27.3045V565.3312H972.7V459.1446A27.3044,27.3044,0,0,1,1000.0007,431.84Z" transform="translate(-3.1075 -206.36)"/><path class="cls-34" d="M927.9357,565.3433V345.1075" transform="translate(-3.1075 -206.36)"/><path class="cls-34" d="M908.23,565.3433V367.966a22.4772,22.4772,0,0,1,2.0265-9.4068c4.4582-9.6257,14.4324-12.5641,16.2319-13.0869" transform="translate(-3.1075 -206.36)"/><path class="cls-34" d="M946.1982,565.3433V367.966a22.4772,22.4772,0,0,0-2.0265-9.4068c-4.4582-9.6257-14.4284-12.5641-16.2319-13.0869" transform="translate(-3.1075 -206.36)"/><path class="cls-34" d="M1001.1437,565.5338V431.832" transform="translate(-3.1075 -206.36)"/><path class="cls-34" d="M981.4384,565.5338V445.7213a9.3215,9.3215,0,0,1,2.0264-5.71c4.4582-5.8443,14.4325-7.64,16.2117-7.9438" transform="translate(-3.1075 -206.36)"/><path class="cls-34" d="M1019.4061,565.5338V445.7213a9.3215,9.3215,0,0,0-2.0264-5.71c-4.4582-5.8443-14.4284-7.64-16.2117-7.9438" transform="translate(-3.1075 -206.36)"/><g id="Thors"><circle class="cls-5" cx="895.6715" cy="216.1989" r="0.8106"/><circle class="cls-5" cx="901.4469" cy="253.3966" r="0.8106"/><circle class="cls-5" cx="957.361" cy="290.5943" r="0.8106"/><circle class="cls-5" cx="915.0688" cy="311.7587" r="0.8106"/><circle class="cls-5" cx="895.6715" cy="169.6997" r="0.8106"/><circle class="cls-5" cx="950.0293" cy="183.4918" r="0.8106"/><circle class="cls-5" cx="896.4821" cy="350.5614" r="0.8106"/><circle class="cls-5" cx="954.3578" cy="350.5614" r="0.8106"/><circle class="cls-5" cx="916.6899" cy="337.0895" r="0.8106"/><circle class="cls-5" cx="955.1684" cy="318.1704" r="0.8106"/><circle class="cls-5" cx="939.6052" cy="347.5176" r="0.8106"/><circle class="cls-5" cx="897.2926" cy="319.7916" r="0.8106"/><circle class="cls-5" cx="911.3847" cy="286.744" r="0.8106"/><circle class="cls-5" cx="894.3907" cy="288.3652" r="0.8106"/><circle class="cls-5" cx="936.0791" cy="301.8169" r="0.8106"/><circle class="cls-5" cx="928.3826" cy="267.1846" r="0.8106"/><circle class="cls-5" cx="955.1684" cy="273.6004" r="0.8106"/><circle class="cls-5" cx="951.6504" cy="232.5524" r="0.8106"/><circle class="cls-5" cx="933.1934" cy="245.0597" r="0.8106"/><circle class="cls-5" cx="915.0688" cy="238.3238" r="0.8106"/><circle class="cls-5" cx="958.9822" cy="206.8974" r="0.8106"/><circle class="cls-5" cx="909.1393" cy="197.6" r="0.8106"/><circle class="cls-5" cx="913.0058" cy="147.2546" r="0.8106"/><circle class="cls-5" cx="950.8399" cy="167.1342" r="0.8106"/><circle class="cls-5" cx="922.9314" cy="171.3209" r="0.8106"/><circle class="cls-5" cx="941.8748" cy="153.026" r="0.8106"/><circle class="cls-5" cx="934.004" cy="197.6" r="0.8106"/><circle class="cls-5" cx="935.6252" cy="224.2155" r="0.8106"/><circle class="cls-5" cx="920.0458" cy="214.9141" r="0.8106"/><circle class="cls-5" cx="892.1454" cy="239.9449" r="0.8106"/><circle class="cls-5" cx="892.1454" cy="273.6004" r="0.8106"/><circle class="cls-5" cx="956.7896" cy="255.0178" r="0.8106"/><circle class="cls-5" cx="939.6052" cy="328.1122" r="0.8106"/><circle class="cls-5" cx="920.8563" cy="357.9336" r="0.8106"/><circle class="cls-5" cx="893.7666" cy="190.2237" r="0.8106"/><circle class="cls-5" cx="976.4827" cy="246.6809" r="0.8106"/><circle class="cls-5" cx="988.2767" cy="256.6389" r="0.8106"/><circle class="cls-5" cx="994.7128" cy="328.2987" r="0.8106"/><circle class="cls-5" cx="973.2768" cy="347.5176" r="0.8106"/><circle class="cls-5" cx="1020.7366" cy="352.1825" r="0.8106"/><circle class="cls-5" cx="1005.6637" cy="346.707" r="0.8106"/><circle class="cls-5" cx="991.0651" cy="349.7508" r="0.8106"/><circle class="cls-5" cx="1007.2849" cy="320.7035" r="0.8106"/><circle class="cls-5" cx="974.898" cy="299.2514" r="0.8106"/><circle class="cls-5" cx="982.404" cy="332.923" r="0.8106"/><circle class="cls-5" cx="977.2933" cy="321.5141" r="0.8106"/><circle class="cls-5" cx="1019.926" cy="329.7334" r="0.8106"/><circle class="cls-5" cx="1006.4743" cy="298.7812" r="0.8106"/><circle class="cls-5" cx="991.8757" cy="306.6277" r="0.8106"/><circle class="cls-5" cx="1007.982" cy="274.411" r="0.8106"/><circle class="cls-5" cx="976.4827" cy="270.7107" r="0.8106"/><circle class="cls-5" cx="1004.0588" cy="233.363" r="0.8106"/><circle class="cls-5" cx="998.0361" cy="244.2491" r="0.8106"/><circle class="cls-5" cx="986.6555" cy="231.7418" r="0.8106"/><circle class="cls-5" cx="1019.1154" cy="262.0982" r="0.8106"/><circle class="cls-5" cx="1008.0955" cy="256.6389" r="0.8106"/><circle class="cls-5" cx="1022.3577" cy="297.9706" r="0.8106"/><circle class="cls-5" cx="989.8979" cy="281.6171" r="0.8106"/><circle class="cls-5" cx="1016.3027" cy="241.5661" r="0.8106"/></g></g><g id="plat-2"><path class="cls-35" d="M381.0249,511.5371c.4262-3.404,5.8413-4.8028,7.9365-2.1012a459.3777,459.3777,0,0,1,51.0595,83.7362,440.2637,440.2637,0,0,1,28.2162,78.5553l-78.94,20.2376a518.89,518.89,0,0,1-11.6046-84.3726A539.454,539.454,0,0,1,381.0249,511.5371Z" transform="translate(-3.1075 -206.36)"/><path class="cls-36" d="M428.3081,681.1588l.5223-.1381q-9.5094-39.2325-20.1956-80.9746-10.1278-39.5268-21.4744-81.533a18.4606,18.4606,0,0,0-.9846-2.81,18.5479,18.5479,0,0,0,.48,2.93q9.6056,39.6228,20.4118,81.8211Q417.0876,639.609,428.3081,681.1588Z" transform="translate(-3.1075 -206.36)"/><path class="cls-37" d="M535.98,511.5371c-.4263-3.404-5.8414-4.8028-7.9366-2.1012a459.0454,459.0454,0,0,0-51.0294,83.7362,439.85,439.85,0,0,0-28.2163,78.5553l78.9095,20.2376A518.8985,518.8985,0,0,0,539.33,607.5984,539.4683,539.4683,0,0,0,535.98,511.5371Z" transform="translate(-3.1075 -206.36)"/><path class="cls-36" d="M488.6969,681.1588l-.5223-.1381q9.51-39.2325,20.1956-80.9746,10.134-39.5268,21.4744-81.533a18.4606,18.4606,0,0,1,.9846-2.81,17.846,17.846,0,0,1-.48,2.93q-9.6055,39.6228-20.4117,81.8211Q499.9173,639.609,488.6969,681.1588Z" transform="translate(-3.1075 -206.36)"/><path class="cls-38" d="M465.2414,446.31c-1.4949-3.8122-8.1767-3.86-9.7856-.0781a547.6234,547.6234,0,0,0-34.22,111.8745,524.5171,524.5171,0,0,0-9.3173,99.1231h97.214A619.95,619.95,0,0,0,497.57,556.2868,642.6587,642.6587,0,0,0,465.2414,446.31Z" transform="translate(-3.1075 -206.36)"/><path class="cls-36" d="M460.8589,656.3285h-.6484q-.6-48.16-.6424-99.5434,0-48.6761.66-100.5759a18.6029,18.6029,0,0,1,.3062-3.536,21.1981,21.1981,0,0,1,.3122,3.524q.6423,48.628.66,100.5879Q461.5072,604.975,460.8589,656.3285Z" transform="translate(-3.1075 -206.36)"/><path class="cls-39" d="M605.146,526.9059c.7805-4.0163-4.8027-7.6424-8.2187-5.313a548.2127,548.2127,0,0,0-88.8512,76.1178,524.6337,524.6337,0,0,0-61.0132,78.6453L529.1,728.4781a619.8279,619.8279,0,0,0,44.36-91.3907A642.7,642.7,0,0,0,605.146,526.9059Z" transform="translate(-3.1075 -206.36)"/><path class="cls-36" d="M488.841,701.8407l-.5463-.3482q25.2865-40.9915,52.83-84.3726,26.091-41.0877,54.4934-84.5407a20.0794,20.0794,0,0,1,2.1613-2.8216,21.667,21.667,0,0,1-1.627,3.1458q-25.5447,41.4239-53.3767,85.2491Q516.9253,658.8379,488.841,701.8407Z" transform="translate(-3.1075 -206.36)"/><path class="cls-40" d="M314.9628,526.9059c-.7744-4.0163,4.8388-7.6424,8.2247-5.313a548.2084,548.2084,0,0,1,88.8512,76.1178,524.5623,524.5623,0,0,1,61.0072,78.6453l-82.0313,52.1221a619.8274,619.8274,0,0,1-44.3595-91.3907A643.3049,643.3049,0,0,1,314.9628,526.9059Z" transform="translate(-3.1075 -206.36)"/><path class="cls-36" d="M431.2738,701.8407l.5463-.3482Q406.5336,660.501,378.99,617.12q-26.097-41.0877-54.4814-84.5407a20.08,20.08,0,0,0-2.1612-2.8216,21.6543,21.6543,0,0,0,1.6269,3.1458q25.5507,41.4239,53.3708,85.2491Q403.1957,658.8379,431.2738,701.8407Z" transform="translate(-3.1075 -206.36)"/><path class="cls-41" d="M616.6606,657.229H300.5245a5.8294,5.8294,0,0,0-5.5232,7.6965l25.2145,74.8331a5.8355,5.8355,0,0,0,5.5292,3.9683h8.4469q16.4435,64.3811,32.893,128.7562a5.8292,5.8292,0,0,0,5.6492,4.3885H544.349a5.8294,5.8294,0,0,0,5.6793-4.5026q15.0086-64.3211,30.0473-128.6421h11.3405a5.8294,5.8294,0,0,0,5.5232-3.9683l25.2145-74.8331a5.8354,5.8354,0,0,0-5.4932-7.6965Z" transform="translate(-3.1075 -206.36)"/></g></svg>