<svg xmlns="http://www.w3.org/2000/svg" xmlns:xlink="http://www.w3.org/1999/xlink" viewBox="0 0 546.03 722"><defs><style>.cls-1{fill:url(#Green-Plant-Gradient);}.cls-2{fill:#173a00;opacity:0.25;}.cls-3{fill:url(#Green-Plant-Gradient-2);}.cls-4{fill:url(#Green-Plant-Gradient-3);}.cls-5{fill:url(#Green-Plant-Gradient-4);}.cls-6{fill:url(#Green-Plant-Gradient-5);}.cls-7{fill:url(#linear-gradient);}</style><linearGradient id="Green-Plant-Gradient" x1="283.16" y1="277.42" x2="249.93" y2="177.73" gradientUnits="userSpaceOnUse"><stop offset="0" stop-color="#004b23"/><stop offset="0.5" stop-color="#007200"/><stop offset="1" stop-color="#38b000"/></linearGradient><linearGradient id="Green-Plant-Gradient-2" x1="465.99" y1="277.17" x2="491.31" y2="196.47" xlink:href="#Green-Plant-Gradient"/><linearGradient id="Green-Plant-Gradient-3" x1="396.94" y1="338.06" x2="338.39" y2="181.4" xlink:href="#Green-Plant-Gradient"/><linearGradient id="Green-Plant-Gradient-4" x1="392.12" y1="423.94" x2="563.02" y2="305.26" xlink:href="#Green-Plant-Gradient"/><linearGradient id="Green-Plant-Gradient-5" x1="357.94" y1="404.67" x2="193.37" y2="306.56" xlink:href="#Green-Plant-Gradient"/><linearGradient id="linear-gradient" x1="102.74" y1="551.07" x2="648.77" y2="551.07" gradientUnits="userSpaceOnUse"><stop offset="0" stop-color="#f86509"/><stop offset="1" stop-color="#e99e30"/></linearGradient></defs><g id="Layer_2" data-name="Layer 2"><path class="cls-1" d="M246.55,125.46c.71-5.67,9.73-8,13.22-3.5a765.19,765.19,0,0,1,85.05,139.48,733.35,733.35,0,0,1,47,130.85L260.33,426A864.33,864.33,0,0,1,241,285.46,898.59,898.59,0,0,1,246.55,125.46Z" transform="translate(-102.74 -12)"/><path class="cls-2" d="M325.31,408l.87-.23q-15.84-65.35-33.64-134.88-16.87-65.84-35.77-135.81c-.28-.93-1.43-4.74-1.64-4.68s.6,3.92.8,4.88q16,66,34,136.29Q306.62,338.79,325.31,408Z" transform="translate(-102.74 -12)"/><path class="cls-3" d="M504.66,125.46c-.71-5.67-9.73-8-13.22-3.5a764.63,764.63,0,0,0-85,139.48,732.66,732.66,0,0,0-47,130.85L490.88,426a864.33,864.33,0,0,0,19.36-140.53A898.59,898.59,0,0,0,504.66,125.46Z" transform="translate(-102.74 -12)"/><path class="cls-2" d="M425.9,408l-.87-.23q15.84-65.35,33.64-134.88,16.88-65.84,35.77-135.81c.28-.93,1.43-4.74,1.64-4.68s-.59,3.92-.8,4.88q-16,66-34,136.29Q444.59,338.79,425.9,408Z" transform="translate(-102.74 -12)"/><path class="cls-4" d="M386.83,16.81c-2.49-6.35-13.62-6.43-16.3-.13a912.18,912.18,0,0,0-57,186.35,873.69,873.69,0,0,0-15.52,165.11H459.94A1032.67,1032.67,0,0,0,440.68,200,1070.49,1070.49,0,0,0,386.83,16.81Z" transform="translate(-102.74 -12)"/><path class="cls-2" d="M379.53,366.64h-1.08q-1-80.22-1.07-165.81,0-81.08,1.1-167.53c0-1.16.24-5.89.51-5.89s.47,4.71.52,5.87q1.07,81,1.1,167.55Q380.61,281.1,379.53,366.64Z" transform="translate(-102.74 -12)"/><path class="cls-5" d="M619.87,151.06c1.3-6.69-8-12.73-13.69-8.85A913.17,913.17,0,0,0,458.18,269,873.89,873.89,0,0,0,356.55,400L493.2,486.82a1032.45,1032.45,0,0,0,73.89-152.23A1070.55,1070.55,0,0,0,619.87,151.06Z" transform="translate(-102.74 -12)"/><path class="cls-2" d="M426.14,442.45l-.91-.58q42.12-68.28,88-140.54Q556.69,232.89,604,160.51c.67-1,3.38-4.85,3.6-4.7s-2.13,4.23-2.71,5.24q-42.55,69-88.91,142Q472.92,370.82,426.14,442.45Z" transform="translate(-102.74 -12)"/><path class="cls-6" d="M136.51,151.06c-1.29-6.69,8.06-12.73,13.7-8.85A913.17,913.17,0,0,1,298.21,269,873.77,873.77,0,0,1,399.83,400L263.19,486.82A1032.45,1032.45,0,0,1,189.3,334.59,1071.55,1071.55,0,0,1,136.51,151.06Z" transform="translate(-102.74 -12)"/><path class="cls-2" d="M330.25,442.45l.91-.58q-42.12-68.28-88-140.54-43.47-68.44-90.75-140.82c-.67-1-3.38-4.85-3.6-4.7s2.13,4.23,2.71,5.24q42.56,69,88.9,142Q283.48,370.82,330.25,442.45Z" transform="translate(-102.74 -12)"/><path class="cls-7" d="M639.05,368.14H112.46a9.71,9.71,0,0,0-9.2,12.82l42,124.65a9.72,9.72,0,0,0,9.21,6.61h14.07q27.39,107.24,54.79,214.47a9.71,9.71,0,0,0,9.41,7.31H518.6a9.71,9.71,0,0,0,9.46-7.5q25-107.14,50.05-214.28H597a9.71,9.71,0,0,0,9.2-6.61l42-124.65A9.72,9.72,0,0,0,639.05,368.14Z" transform="translate(-102.74 -12)"/></g></svg>